<?xml version="1.0" encoding="UTF-8"?>
<!DOCTYPE svg PUBLIC "-//W3C//DTD SVG 1.1//EN" "http://www.w3.org/Graphics/SVG/1.1/DTD/svg11.dtd">
<svg xmlns="http://www.w3.org/2000/svg" version="1.1" width="411px" height="411px" style="shape-rendering:geometricPrecision; text-rendering:geometricPrecision; image-rendering:optimizeQuality; fill-rule:evenodd; clip-rule:evenodd" xmlns:xlink="http://www.w3.org/1999/xlink">
<g><path style="opacity:1" fill="#424242" d="M -0.5,-0.5 C 11.5,-0.5 23.5,-0.5 35.5,-0.5C 35.9175,0.221579 36.5842,0.721579 37.5,1C 34.8333,1.66667 34.8333,2.33333 37.5,3C 34.8333,3.66667 34.8333,4.33333 37.5,5C 34.8333,5.66667 34.8333,6.33333 37.5,7C 34.8333,7.66667 34.8333,8.33333 37.5,9C 34.8333,9.66667 34.8333,10.3333 37.5,11C 34.8333,11.6667 34.8333,12.3333 37.5,13C 34.8333,13.6667 34.8333,14.3333 37.5,15C 36.8333,15.3333 36.1667,15.6667 35.5,16C 40.8333,16.6667 40.8333,17.3333 35.5,18C 36.1667,18.3333 36.8333,18.6667 37.5,19C 37.1667,20.6667 36.8333,22.3333 36.5,24C 40.5,24.6667 40.5,25.3333 36.5,26C 37.8333,26.6667 37.8333,27.3333 36.5,28C 40.5,28.6667 40.5,29.3333 36.5,30C 37.1667,31.3333 38.1667,32.3333 39.5,33C 36.8333,34.3333 36.8333,35.6667 39.5,37C 38.0267,37.7096 37.3601,38.8762 37.5,40.5C 41.8926,40.4568 42.2259,40.9568 38.5,42C 39.8333,42.6667 39.8333,43.3333 38.5,44C 42.5,44.6667 42.5,45.3333 38.5,46C 39.8333,46.6667 39.8333,47.3333 38.5,48C 42.5,48.6667 42.5,49.3333 38.5,50C 41.5443,50.3589 41.8776,51.0255 39.5,52C 42.1667,52.6667 42.1667,53.3333 39.5,54C 42.1667,54.6667 42.1667,55.3333 39.5,56C 40.1667,56.3333 40.8333,56.6667 41.5,57C 41.1667,58 40.8333,59 40.5,60C 44.5,60.6667 44.5,61.3333 40.5,62C 41.8333,62.6667 41.8333,63.3333 40.5,64C 46.1342,64.6341 46.4675,65.1341 41.5,65.5C 41.5,66.5 41.5,67.5 41.5,68.5C 46.7937,68.6822 46.7937,69.1822 41.5,70C 41.952,71.6124 43.2853,72.6124 45.5,73C 41.5,73.6667 41.5,74.3333 45.5,75C 42.8333,75.6667 42.8333,76.3333 45.5,77C 42.8333,77.6667 42.8333,78.3333 45.5,79C 44.8333,79.3333 44.1667,79.6667 43.5,80C 47.8518,80.4189 48.1851,81.0855 44.5,82C 45.8333,82.6667 45.8333,83.3333 44.5,84C 48.5,84.6667 48.5,85.3333 44.5,86C 45.67,87.7547 47.3367,88.7547 49.5,89C 48.1667,89.3333 46.8333,89.6667 45.5,90C 45.952,91.6124 47.2853,92.6124 49.5,93C 46.0536,93.7039 46.0536,95.0372 49.5,97C 46.8333,97.6667 46.8333,98.3333 49.5,99C 46.8333,99.6667 46.8333,100.333 49.5,101C 49.1667,102 48.8333,103 48.5,104C 54.1748,104.464 54.5081,105.131 49.5,106C 52.1667,106.667 52.1667,107.333 49.5,108C 53.8518,108.419 54.1851,109.086 50.5,110C 51.8333,110.667 51.8333,111.333 50.5,112C 53.5443,112.359 53.8776,113.026 51.5,114C 54.1667,114.667 54.1667,115.333 51.5,116C 51.952,117.612 53.2853,118.612 55.5,119C 52.8333,119.667 52.8333,120.333 55.5,121C 54.8333,121.333 54.1667,121.667 53.5,122C 57.8518,122.419 58.1851,123.086 54.5,124C 55.8333,124.667 55.8333,125.333 54.5,126C 57.5443,126.359 57.8776,127.026 55.5,128C 58.1667,128.667 58.1667,129.333 55.5,130C 56.1667,130.333 56.8333,130.667 57.5,131C 56.3595,131.741 56.3595,132.575 57.5,133.5C 62.7208,134.624 62.7208,135.458 57.5,136C 57.952,137.612 59.2853,138.612 61.5,139C 58.8333,139.667 58.8333,140.333 61.5,141C 60.8333,141.333 60.1667,141.667 59.5,142C 63.8518,142.419 64.1851,143.086 60.5,144C 61.1667,145.333 62.1667,146.333 63.5,147C 60.8333,147.667 60.8333,148.333 63.5,149C 63.1667,149.333 62.8333,149.667 62.5,150C 65.5443,150.359 65.8776,151.026 63.5,152C 66.1667,152.667 66.1667,153.333 63.5,154C 64.1667,154.333 64.8333,154.667 65.5,155C 64.3595,155.741 64.3595,156.575 65.5,157.5C 70.7208,158.624 70.7208,159.458 65.5,160C 65.952,161.612 67.2853,162.612 69.5,163C 66.8333,163.667 66.8333,164.333 69.5,165C 69.1667,165.333 68.8333,165.667 68.5,166C 71.5443,166.359 71.8776,167.026 69.5,168C 72.1667,168.667 72.1667,169.333 69.5,170C 73.8518,170.419 74.1851,171.086 70.5,172C 71.1667,173.333 72.1667,174.333 73.5,175C 73.1667,175.333 72.8333,175.667 72.5,176C 73.67,177.755 75.3367,178.755 77.5,179C 76.1667,179.333 74.8333,179.667 73.5,180C 73.952,181.612 75.2853,182.612 77.5,183C 76.8333,183.333 76.1667,183.667 75.5,184C 75.952,185.612 77.2853,186.612 79.5,187C 76.8333,187.667 76.8333,188.333 79.5,189C 79.1667,189.333 78.8333,189.667 78.5,190C 81.5443,190.359 81.8776,191.026 79.5,192C 82.1667,192.667 82.1667,193.333 79.5,194C 83.8518,194.419 84.1851,195.086 80.5,196C 81.67,197.755 83.3367,198.755 85.5,199C 81.5,199.667 81.5,200.333 85.5,201C 84.8333,201.333 84.1667,201.667 83.5,202C 87.8518,202.419 88.1851,203.086 84.5,204C 85.67,205.755 87.3367,206.755 89.5,207C 85.5,207.667 85.5,208.333 89.5,209C 86.8333,209.667 86.8333,210.333 89.5,211C 89.1667,211.333 88.8333,211.667 88.5,212C 89.67,213.755 91.3367,214.755 93.5,215C 89.5,215.667 89.5,216.333 93.5,217C 92.8333,217.333 92.1667,217.667 91.5,218C 95.8518,218.419 96.1851,219.086 92.5,220C 93.67,221.755 95.3367,222.755 97.5,223C 93.5,223.667 93.5,224.333 97.5,225C 96.8333,225.333 96.1667,225.667 95.5,226C 96.8333,226.333 98.1667,226.667 99.5,227C 97.0028,229.26 97.6695,230.593 101.5,231C 100.833,231.333 100.167,231.667 99.5,232C 99.952,233.612 101.285,234.612 103.5,235C 102.833,235.333 102.167,235.667 101.5,236C 101.952,237.612 103.285,238.612 105.5,239C 104.833,239.333 104.167,239.667 103.5,240C 105.226,241.53 107.226,242.53 109.5,243C 105.5,243.667 105.5,244.333 109.5,245C 108.833,245.333 108.167,245.667 107.5,246C 111.852,246.419 112.185,247.086 108.5,248C 111.544,248.359 111.878,249.026 109.5,250C 110.448,250.483 111.448,250.649 112.5,250.5C 115.928,258.949 119.261,267.449 122.5,276C 102.5,276.667 102.5,277.333 122.5,278C 125.522,282.527 126.522,287.361 125.5,292.5C 124.711,292.783 124.044,293.283 123.5,294C 128.167,294.667 132.833,294.667 137.5,294C 136.956,293.283 136.289,292.783 135.5,292.5C 133.375,289.912 132.042,286.912 131.5,283.5C 132.601,282.402 133.934,282.235 135.5,283C 134.5,283.333 133.5,283.667 132.5,284C 134.167,285 135.833,286 137.5,287C 136.833,287.333 136.167,287.667 135.5,288C 137.169,289.669 139.169,290.502 141.5,290.5C 140.737,291.268 139.737,291.768 138.5,292C 139.5,292.333 140.5,292.667 141.5,293C 141.167,293.333 140.833,293.667 140.5,294C 142.167,294.333 143.833,294.667 145.5,295C 141.5,295.667 141.5,296.333 145.5,297C 144.833,297.333 144.167,297.667 143.5,298C 144.833,298.333 146.167,298.667 147.5,299C 144.833,299.667 144.833,300.333 147.5,301C 147.167,301.333 146.833,301.667 146.5,302C 148.167,302.333 149.833,302.667 151.5,303C 150.5,303.333 149.5,303.667 148.5,304C 150.167,305 151.833,306 153.5,307C 152.833,307.333 152.167,307.667 151.5,308C 153.226,309.53 155.226,310.53 157.5,311C 154.305,311.181 151.305,311.681 148.5,312.5C 148.5,326.167 148.5,339.833 148.5,353.5C 155.5,353.5 162.5,353.5 169.5,353.5C 169.5,352.5 169.5,351.5 169.5,350.5C 163.5,350.5 157.5,350.5 151.5,350.5C 151.5,345.167 151.5,339.833 151.5,334.5C 157.167,334.5 162.833,334.5 168.5,334.5C 168.5,333.5 168.5,332.5 168.5,331.5C 163.36,330.512 158.026,330.179 152.5,330.5C 152.5,325.833 152.5,321.167 152.5,316.5C 155.518,316.335 158.518,316.502 161.5,317C 161.167,317.333 160.833,317.667 160.5,318C 162.167,318.333 163.833,318.667 165.5,319C 161.5,319.667 161.5,320.333 165.5,321C 165.167,321.333 164.833,321.667 164.5,322C 170.175,322.464 170.508,323.131 165.5,324C 167.845,325.783 170.512,326.783 173.5,327C 168.167,327.667 168.167,328.333 173.5,329C 172.833,329.333 172.167,329.667 171.5,330C 172.833,330.333 174.167,330.667 175.5,331C 174.833,331.333 174.167,331.667 173.5,332C 175.808,333.936 178.475,334.769 181.5,334.5C 181.5,335.833 181.5,337.167 181.5,338.5C 180.031,343.382 179.031,348.382 178.5,353.5C 179.5,353.5 180.5,353.5 181.5,353.5C 181.751,349.751 182.417,346.085 183.5,342.5C 185.527,342.338 187.527,342.505 189.5,343C 184.167,343.667 184.167,344.333 189.5,345C 188.833,345.333 188.167,345.667 187.5,346C 188.833,346.333 190.167,346.667 191.5,347C 189.009,347.626 189.009,348.459 191.5,349.5C 193.423,350.308 195.423,350.808 197.5,351C 192.167,351.667 192.167,352.333 197.5,353C 196.833,353.333 196.167,353.667 195.5,354C 197.5,354.333 199.5,354.667 201.5,355C 200.167,355.333 198.833,355.667 197.5,356C 199.448,357.618 202.114,358.618 205.5,359C 201.5,359.667 201.5,360.333 205.5,361C 205.167,361.333 204.833,361.667 204.5,362C 206.167,362.333 207.833,362.667 209.5,363C 208.5,363.333 207.5,363.667 206.5,364C 208.714,365.273 211.047,366.273 213.5,367C 212.833,367.333 212.167,367.667 211.5,368C 213.5,368.333 215.5,368.667 217.5,369C 216.167,369.333 214.833,369.667 213.5,370C 215.448,371.618 218.114,372.618 221.5,373C 220.5,373.333 219.5,373.667 218.5,374C 220.714,375.273 223.047,376.273 225.5,377C 224.833,377.333 224.167,377.667 223.5,378C 225.808,379.867 228.475,380.867 231.5,381C 230.5,381.333 229.5,381.667 228.5,382C 230.167,382.333 231.833,382.667 233.5,383C 232.833,383.333 232.167,383.667 231.5,384C 233.5,384.333 235.5,384.667 237.5,385C 236.167,385.333 234.833,385.667 233.5,386C 235.448,387.618 238.114,388.618 241.5,389C 240.833,389.333 240.167,389.667 239.5,390C 241.808,391.867 244.475,392.867 247.5,393C 246.5,393.333 245.5,393.667 244.5,394C 247.292,395.597 250.292,396.597 253.5,397C 252.5,397.333 251.5,397.667 250.5,398C 252.714,399.273 255.047,400.273 257.5,401C 256.346,401.914 256.513,402.747 258,403.5C 258.333,403.167 258.667,402.833 259,402.5C 260.786,404.099 262.953,404.933 265.5,405C 264.5,405.333 263.5,405.667 262.5,406C 265.292,407.597 268.292,408.597 271.5,409C 270.263,409.232 269.263,409.732 268.5,410.5C 216.167,410.5 163.833,410.5 111.5,410.5C 111.918,409.778 112.584,409.278 113.5,409C 111.226,408.53 109.226,407.53 107.5,406C 108.167,405.667 108.833,405.333 109.5,405C 107.226,404.53 105.226,403.53 103.5,402C 104.167,401.667 104.833,401.333 105.5,401C 103.226,400.53 101.226,399.53 99.5,398C 100.167,397.667 100.833,397.333 101.5,397C 99.2262,396.53 97.2262,395.53 95.5,394C 96.1667,393.667 96.8333,393.333 97.5,393C 95.8333,392 94.1667,391 92.5,390C 93.5,389.667 94.5,389.333 95.5,389C 92.6924,388.981 90.3591,387.981 88.5,386C 88.8333,385.667 89.1667,385.333 89.5,385C 87.2853,384.612 85.952,383.612 85.5,382C 86.1667,381.667 86.8333,381.333 87.5,381C 85.2262,380.53 83.2262,379.53 81.5,378C 82.8333,377.667 84.1667,377.333 85.5,377C 83.5,376.667 81.5,376.333 79.5,376C 81.8776,375.026 81.5443,374.359 78.5,374C 79.5,373.667 80.5,373.333 81.5,373C 79.8333,372.667 78.1667,372.333 76.5,372C 76.8333,371.667 77.1667,371.333 77.5,371C 73.5,370.333 73.5,369.667 77.5,369C 74.3255,368.161 71.6589,366.495 69.5,364C 74.5081,363.131 74.1748,362.464 68.5,362C 68.8333,361.667 69.1667,361.333 69.5,361C 65.5,360.333 65.5,359.667 69.5,359C 67.2262,358.53 65.2262,357.53 63.5,356C 64.1667,355.667 64.8333,355.333 65.5,355C 63.3367,354.755 61.67,353.755 60.5,352C 61.5,351.667 62.5,351.333 63.5,351C 61.8333,350.667 60.1667,350.333 58.5,350C 59.6341,348.984 59.3008,348.317 57.5,348C 58.1667,347.667 58.8333,347.333 59.5,347C 58.1667,346.667 56.8333,346.333 55.5,346C 57.8776,345.026 57.5443,344.359 54.5,344C 55.5,343.667 56.5,343.333 57.5,343C 55.8333,342.667 54.1667,342.333 52.5,342C 53.6341,340.984 53.3008,340.317 51.5,340C 52.1667,339.667 52.8333,339.333 53.5,339C 51.3367,338.755 49.67,337.755 48.5,336C 49.5,335.667 50.5,335.333 51.5,335C 49.2262,334.53 47.2262,333.53 45.5,332C 46.1667,331.667 46.8333,331.333 47.5,331C 45.8333,330 44.1667,329 42.5,328C 43.5,327.667 44.5,327.333 45.5,327C 44.062,326.781 42.7287,326.281 41.5,325.5C 40.3595,324.575 40.3595,323.741 41.5,323C 39.2853,322.612 37.952,321.612 37.5,320C 42.5081,319.131 42.1748,318.464 36.5,318C 36.8333,317.667 37.1667,317.333 37.5,317C 33.5,316.333 33.5,315.667 37.5,315C 36.062,314.781 34.7287,314.281 33.5,313.5C 32.3595,312.575 32.3595,311.741 33.5,311C 32.5,310.667 31.5,310.333 30.5,310C 31.6341,308.984 31.3008,308.317 29.5,308C 30.1667,307.667 30.8333,307.333 31.5,307C 29.2853,306.612 27.952,305.612 27.5,304C 28.1667,303.667 28.8333,303.333 29.5,303C 28.062,302.781 26.7287,302.281 25.5,301.5C 24.3595,300.575 24.3595,299.741 25.5,299C 22.8333,298.333 22.8333,297.667 25.5,297C 21.5,296.333 21.5,295.667 25.5,295C 23.8333,294.667 22.1667,294.333 20.5,294C 21.6341,292.984 21.3008,292.317 19.5,292C 20.1667,291.667 20.8333,291.333 21.5,291C 19.2853,290.612 17.952,289.612 17.5,288C 22.5081,287.131 22.1748,286.464 16.5,286C 17.6341,284.984 17.3008,284.317 15.5,284C 16.1667,283.667 16.8333,283.333 17.5,283C 16.1667,282.667 14.8333,282.333 13.5,282C 15.8776,281.026 15.5443,280.359 12.5,280C 16.1851,279.086 15.8518,278.419 11.5,278C 13.8776,277.026 13.5443,276.359 10.5,276C 11.5,275.667 12.5,275.333 13.5,275C 11.3367,274.755 9.67003,273.755 8.5,272C 9.5,271.667 10.5,271.333 11.5,271C 9.3367,270.755 7.67003,269.755 6.5,268C 7.5,267.667 8.5,267.333 9.5,267C 7.3367,266.755 5.67003,265.755 4.5,264C 5.5,263.667 6.5,263.333 7.5,263C 5.3367,262.755 3.67003,261.755 2.5,260C 3.5,259.667 4.5,259.333 5.5,259C 4.06199,258.781 2.72865,258.281 1.5,257.5C 0.359452,256.575 0.359452,255.741 1.5,255C 0.905578,254.536 0.238911,254.369 -0.5,254.5C -0.5,169.5 -0.5,84.5 -0.5,-0.5 Z"/></g>
<g><path style="opacity:1" fill="#484848" d="M 35.5,-0.5 C 64.1667,-0.5 92.8333,-0.5 121.5,-0.5C 122.609,0.28997 123.942,0.78997 125.5,1C 124.167,1.33333 122.833,1.66667 121.5,2C 124.167,2.66667 124.167,3.33333 121.5,4C 126.833,4.66667 126.833,5.33333 121.5,6C 121.952,7.61239 123.285,8.61239 125.5,9C 124.5,9.33333 123.5,9.66667 122.5,10C 123.833,10.6667 123.833,11.3333 122.5,12C 126.5,12.6667 126.5,13.3333 122.5,14C 123.833,14.6667 123.833,15.3333 122.5,16C 126.5,16.6667 126.5,17.3333 122.5,18C 126.5,18.6667 126.5,19.3333 122.5,20C 126.5,20.6667 126.5,21.3333 122.5,22C 125.544,22.3589 125.878,23.0255 123.5,24C 126.167,24.6667 126.167,25.3333 123.5,26C 126.167,26.6667 126.167,27.3333 123.5,28C 126.167,28.6667 126.167,29.3333 123.5,30C 126.167,30.6667 126.167,31.3333 123.5,32C 127.852,32.4189 128.185,33.0855 124.5,34C 125.833,34.6667 125.833,35.3333 124.5,36C 128.5,36.6667 128.5,37.3333 124.5,38C 125.833,38.6667 125.833,39.3333 124.5,40C 125.5,40.3333 126.5,40.6667 127.5,41C 126.027,41.7096 125.36,42.8762 125.5,44.5C 130.794,44.6822 130.794,45.1822 125.5,46C 125.952,47.6124 127.285,48.6124 129.5,49C 128.5,49.3333 127.5,49.6667 126.5,50C 127.833,50.6667 127.833,51.3333 126.5,52C 129.544,52.3589 129.878,53.0255 127.5,54C 130.167,54.6667 130.167,55.3333 127.5,56C 130.167,56.6667 130.167,57.3333 127.5,58C 128.167,58.3333 128.833,58.6667 129.5,59C 129.167,60.6667 128.833,62.3333 128.5,64C 134.134,64.6341 134.468,65.1341 129.5,65.5C 129.5,66.5 129.5,67.5 129.5,68.5C 134.794,68.6822 134.794,69.1822 129.5,70C 129.952,71.6124 131.285,72.6124 133.5,73C 129.5,73.6667 129.5,74.3333 133.5,75C 130.833,75.6667 130.833,76.3333 133.5,77C 130.833,77.6667 130.833,78.3333 133.5,79C 133.167,79.3333 132.833,79.6667 132.5,80C 136.5,80.6667 136.5,81.3333 132.5,82C 133.167,83.3333 134.167,84.3333 135.5,85C 132.833,85.6667 132.833,86.3333 135.5,87C 135.167,87.3333 134.833,87.6667 134.5,88C 138.5,88.6667 138.5,89.3333 134.5,90C 137.544,90.3589 137.878,91.0255 135.5,92C 138.167,92.6667 138.167,93.3333 135.5,94C 135.952,95.6124 137.285,96.6124 139.5,97C 138.5,97.3333 137.5,97.6667 136.5,98C 137.67,99.7547 139.337,100.755 141.5,101C 140.167,101.333 138.833,101.667 137.5,102C 137.952,103.612 139.285,104.612 141.5,105C 138.833,105.667 138.833,106.333 141.5,107C 138.833,107.667 138.833,108.333 141.5,109C 139.813,112.235 141.146,114.235 145.5,115C 144.5,115.333 143.5,115.667 142.5,116C 143.833,116.667 143.833,117.333 142.5,118C 145.544,118.359 145.878,119.026 143.5,120C 145.301,120.317 145.634,120.984 144.5,122C 148.5,122.667 148.5,123.333 144.5,124C 145.67,125.755 147.337,126.755 149.5,127C 145.5,127.667 145.5,128.333 149.5,129C 146.833,129.667 146.833,130.333 149.5,131C 148.833,131.333 148.167,131.667 147.5,132C 147.952,133.612 149.285,134.612 151.5,135C 148.833,135.667 148.833,136.333 151.5,137C 151.167,137.333 150.833,137.667 150.5,138C 154.5,138.667 154.5,139.333 150.5,140C 153.544,140.359 153.878,141.026 151.5,142C 155.852,142.419 156.185,143.086 152.5,144C 153.67,145.755 155.337,146.755 157.5,147C 154.054,147.704 154.054,149.037 157.5,151C 156.833,151.333 156.167,151.667 155.5,152C 155.952,153.612 157.285,154.612 159.5,155C 158.833,155.333 158.167,155.667 157.5,156C 157.952,157.612 159.285,158.612 161.5,159C 160.833,159.333 160.167,159.667 159.5,160C 159.952,161.612 161.285,162.612 163.5,163C 161.003,165.26 161.67,166.593 165.5,167C 164.833,167.333 164.167,167.667 163.5,168C 163.952,169.612 165.285,170.612 167.5,171C 166.833,171.333 166.167,171.667 165.5,172C 165.952,173.612 167.285,174.612 169.5,175C 166.903,175.779 166.903,176.279 169.5,176.5C 166.118,183.938 163.284,191.604 161,199.5C 159.305,208.728 161.639,216.728 168,223.5C 172.101,216.297 175.934,208.964 179.5,201.5C 180.738,200.588 182.072,200.421 183.5,201C 182.833,201.333 182.167,201.667 181.5,202C 182.833,202.333 184.167,202.667 185.5,203C 182.833,203.667 182.833,204.333 185.5,205C 185.167,205.333 184.833,205.667 184.5,206C 190.175,206.464 190.508,207.131 185.5,208C 189.852,208.419 190.185,209.086 186.5,210C 187.5,210.333 188.5,210.667 189.5,211C 188.359,211.741 188.359,212.575 189.5,213.5C 190.729,214.281 192.062,214.781 193.5,215C 189.5,215.667 189.5,216.333 193.5,217C 193.167,217.333 192.833,217.667 192.5,218C 198.175,218.464 198.508,219.131 193.5,220C 195.301,220.317 195.634,220.984 194.5,222C 196.167,222.333 197.833,222.667 199.5,223C 198.5,223.333 197.5,223.667 196.5,224C 197.67,225.755 199.337,226.755 201.5,227C 198.833,227.667 198.833,228.333 201.5,229C 201.167,229.333 200.833,229.667 200.5,230C 202.167,230.333 203.833,230.667 205.5,231C 201.5,231.667 201.5,232.333 205.5,233C 204.833,233.333 204.167,233.667 203.5,234C 204.833,234.333 206.167,234.667 207.5,235C 206.833,235.333 206.167,235.667 205.5,236C 205.952,237.612 207.285,238.612 209.5,239C 208.359,239.741 208.359,240.575 209.5,241.5C 210.729,242.281 212.062,242.781 213.5,243C 210.833,243.667 210.833,244.333 213.5,245C 212.944,245.383 212.611,245.883 212.5,246.5C 212.062,246.435 211.728,246.601 211.5,247C 212.667,247.5 213.5,248.333 214,249.5C 214.499,255.491 214.666,261.491 214.5,267.5C 186.558,268.823 186.558,269.49 214.5,269.5C 214.666,276.508 214.5,283.508 214,290.5C 213.722,291.416 213.222,292.082 212.5,292.5C 211.957,292.56 211.624,292.893 211.5,293.5C 215.459,294.66 219.459,294.827 223.5,294C 222.956,293.283 222.289,292.783 221.5,292.5C 220.538,279.883 220.205,267.216 220.5,254.5C 223.598,254.413 223.932,254.913 221.5,256C 223.301,256.317 223.634,256.984 222.5,258C 223.5,258.333 224.5,258.667 225.5,259C 224.542,260.147 224.875,261.147 226.5,262C 228.167,262.333 229.833,262.667 231.5,263C 230.5,263.333 229.5,263.667 228.5,264C 230.167,265 231.833,266 233.5,267C 232.833,267.333 232.167,267.667 231.5,268C 232.646,268.645 233.646,269.478 234.5,270.5C 235.496,276.798 235.83,283.132 235.5,289.5C 235.443,290.609 235.11,291.609 234.5,292.5C 233.957,292.56 233.624,292.893 233.5,293.5C 237.167,294.833 240.833,294.833 244.5,293.5C 244.376,292.893 244.043,292.56 243.5,292.5C 242.662,292.158 242.328,291.492 242.5,290.5C 242.5,286.5 242.5,282.5 242.5,278.5C 245.598,278.413 245.932,278.913 243.5,280C 245.226,281.53 247.226,282.53 249.5,283C 248.833,283.333 248.167,283.667 247.5,284C 249.226,285.53 251.226,286.53 253.5,287C 252.833,287.333 252.167,287.667 251.5,288C 253.226,289.53 255.226,290.53 257.5,291C 256.542,292.147 256.875,293.147 258.5,294C 260.167,294.333 261.833,294.667 263.5,295C 259.5,295.667 259.5,296.333 263.5,297C 263.167,297.333 262.833,297.667 262.5,298C 264.167,298.333 265.833,298.667 267.5,299C 265.009,299.626 265.009,300.459 267.5,301.5C 269.423,302.308 271.423,302.808 273.5,303C 272.167,303.333 270.833,303.667 269.5,304C 271.448,305.618 274.114,306.618 277.5,307C 276.5,307.333 275.5,307.667 274.5,308C 276.714,309.273 279.047,310.273 281.5,311C 280.833,311.333 280.167,311.667 279.5,312C 281.808,313.867 284.475,314.867 287.5,315C 286.5,315.333 285.5,315.667 284.5,316C 286.119,316.236 287.119,317.069 287.5,318.5C 286.298,322.578 284.798,326.578 283,330.5C 280.411,324.909 277.911,319.243 275.5,313.5C 274.277,312.386 272.944,312.219 271.5,313C 274.795,319.758 277.962,326.591 281,333.5C 281.5,340.158 281.666,346.825 281.5,353.5C 282.5,353.5 283.5,353.5 284.5,353.5C 282.871,342.026 284.871,331.359 290.5,321.5C 291.15,321.196 291.817,320.863 292.5,320.5C 293.696,320.846 293.696,321.346 292.5,322C 294.167,322.333 295.833,322.667 297.5,323C 296.833,323.333 296.167,323.667 295.5,324C 298.475,326.004 301.808,327.004 305.5,327C 304.167,327.333 302.833,327.667 301.5,328C 303.448,329.618 306.114,330.618 309.5,331C 308.833,331.333 308.167,331.667 307.5,332C 310.475,334.004 313.808,335.004 317.5,335C 316.167,335.333 314.833,335.667 313.5,336C 315.448,337.618 318.114,338.618 321.5,339C 319.099,339.805 319.266,340.638 322,341.5C 322.333,341.167 322.667,340.833 323,340.5C 324.786,342.099 326.953,342.933 329.5,343C 328.5,343.333 327.5,343.667 326.5,344C 329.862,345.915 333.529,346.915 337.5,347C 336.167,347.333 334.833,347.667 333.5,348C 337.335,349.626 341.335,350.626 345.5,351C 338.833,351.667 338.833,352.333 345.5,353C 345.167,353.333 344.833,353.667 344.5,354C 347.5,354.333 350.5,354.667 353.5,355C 346.833,355.667 346.833,356.333 353.5,357C 353.167,357.333 352.833,357.667 352.5,358C 355.5,358.333 358.5,358.667 361.5,359C 359.833,359.333 358.167,359.667 356.5,360C 360.721,361.472 365.054,362.472 369.5,363C 368.167,363.333 366.833,363.667 365.5,364C 370.702,366.297 376.036,367.964 381.5,369C 380.833,369.333 380.167,369.667 379.5,370C 381.5,370.333 383.5,370.667 385.5,371C 385.167,371.333 384.833,371.667 384.5,372C 387.5,372.333 390.5,372.667 393.5,373C 392.167,373.333 390.833,373.667 389.5,374C 391.777,374.973 393.943,375.14 396,374.5C 397.762,374.944 397.595,375.444 395.5,376C 398.833,376.333 402.167,376.667 405.5,377C 403.833,377.333 402.167,377.667 400.5,378C 403.946,378.661 407.279,379.495 410.5,380.5C 410.5,390.5 410.5,400.5 410.5,410.5C 363.167,410.5 315.833,410.5 268.5,410.5C 269.263,409.732 270.263,409.232 271.5,409C 268.292,408.597 265.292,407.597 262.5,406C 263.5,405.667 264.5,405.333 265.5,405C 262.953,404.933 260.786,404.099 259,402.5C 258.667,402.833 258.333,403.167 258,403.5C 256.513,402.747 256.346,401.914 257.5,401C 255.047,400.273 252.714,399.273 250.5,398C 251.5,397.667 252.5,397.333 253.5,397C 250.292,396.597 247.292,395.597 244.5,394C 245.5,393.667 246.5,393.333 247.5,393C 244.475,392.867 241.808,391.867 239.5,390C 240.167,389.667 240.833,389.333 241.5,389C 238.114,388.618 235.448,387.618 233.5,386C 234.833,385.667 236.167,385.333 237.5,385C 235.5,384.667 233.5,384.333 231.5,384C 232.167,383.667 232.833,383.333 233.5,383C 231.833,382.667 230.167,382.333 228.5,382C 229.5,381.667 230.5,381.333 231.5,381C 228.475,380.867 225.808,379.867 223.5,378C 224.167,377.667 224.833,377.333 225.5,377C 223.047,376.273 220.714,375.273 218.5,374C 219.5,373.667 220.5,373.333 221.5,373C 218.114,372.618 215.448,371.618 213.5,370C 214.833,369.667 216.167,369.333 217.5,369C 215.5,368.667 213.5,368.333 211.5,368C 212.167,367.667 212.833,367.333 213.5,367C 211.047,366.273 208.714,365.273 206.5,364C 207.5,363.667 208.5,363.333 209.5,363C 207.833,362.667 206.167,362.333 204.5,362C 204.833,361.667 205.167,361.333 205.5,361C 201.5,360.333 201.5,359.667 205.5,359C 202.114,358.618 199.448,357.618 197.5,356C 198.833,355.667 200.167,355.333 201.5,355C 199.5,354.667 197.5,354.333 195.5,354C 196.167,353.667 196.833,353.333 197.5,353C 192.167,352.333 192.167,351.667 197.5,351C 195.423,350.808 193.423,350.308 191.5,349.5C 189.009,348.459 189.009,347.626 191.5,347C 190.167,346.667 188.833,346.333 187.5,346C 188.167,345.667 188.833,345.333 189.5,345C 184.167,344.333 184.167,343.667 189.5,343C 187.527,342.505 185.527,342.338 183.5,342.5C 188.015,341.188 192.682,341.188 197.5,342.5C 198.5,345.833 199.5,349.167 200.5,352.5C 201.5,353.833 202.5,353.833 203.5,352.5C 199.515,339.224 195.848,325.89 192.5,312.5C 191.167,312.5 189.833,312.5 188.5,312.5C 186.765,321.449 184.432,330.116 181.5,338.5C 181.5,337.167 181.5,335.833 181.5,334.5C 178.475,334.769 175.808,333.936 173.5,332C 174.167,331.667 174.833,331.333 175.5,331C 174.167,330.667 172.833,330.333 171.5,330C 172.167,329.667 172.833,329.333 173.5,329C 168.167,328.333 168.167,327.667 173.5,327C 170.512,326.783 167.845,325.783 165.5,324C 170.508,323.131 170.175,322.464 164.5,322C 164.833,321.667 165.167,321.333 165.5,321C 161.5,320.333 161.5,319.667 165.5,319C 163.833,318.667 162.167,318.333 160.5,318C 160.833,317.667 161.167,317.333 161.5,317C 158.518,316.502 155.518,316.335 152.5,316.5C 152.5,321.167 152.5,325.833 152.5,330.5C 158.026,330.179 163.36,330.512 168.5,331.5C 162.833,331.5 157.167,331.5 151.5,331.5C 151.5,326.167 151.5,320.833 151.5,315.5C 157.5,315.5 163.5,315.5 169.5,315.5C 169.5,314.5 169.5,313.5 169.5,312.5C 162.5,312.5 155.5,312.5 148.5,312.5C 151.305,311.681 154.305,311.181 157.5,311C 155.226,310.53 153.226,309.53 151.5,308C 152.167,307.667 152.833,307.333 153.5,307C 151.833,306 150.167,305 148.5,304C 149.5,303.667 150.5,303.333 151.5,303C 149.833,302.667 148.167,302.333 146.5,302C 146.833,301.667 147.167,301.333 147.5,301C 144.833,300.333 144.833,299.667 147.5,299C 146.167,298.667 144.833,298.333 143.5,298C 144.167,297.667 144.833,297.333 145.5,297C 141.5,296.333 141.5,295.667 145.5,295C 143.833,294.667 142.167,294.333 140.5,294C 140.833,293.667 141.167,293.333 141.5,293C 140.5,292.667 139.5,292.333 138.5,292C 139.737,291.768 140.737,291.268 141.5,290.5C 139.169,290.502 137.169,289.669 135.5,288C 136.167,287.667 136.833,287.333 137.5,287C 135.833,286 134.167,285 132.5,284C 133.5,283.667 134.5,283.333 135.5,283C 133.934,282.235 132.601,282.402 131.5,283.5C 126.066,271.541 121.399,259.208 117.5,246.5C 116.167,246.5 114.833,246.5 113.5,246.5C 113.567,247.959 113.234,249.292 112.5,250.5C 111.448,250.649 110.448,250.483 109.5,250C 111.878,249.026 111.544,248.359 108.5,248C 112.185,247.086 111.852,246.419 107.5,246C 108.167,245.667 108.833,245.333 109.5,245C 105.5,244.333 105.5,243.667 109.5,243C 107.226,242.53 105.226,241.53 103.5,240C 104.167,239.667 104.833,239.333 105.5,239C 103.285,238.612 101.952,237.612 101.5,236C 102.167,235.667 102.833,235.333 103.5,235C 101.285,234.612 99.952,233.612 99.5,232C 100.167,231.667 100.833,231.333 101.5,231C 97.6695,230.593 97.0028,229.26 99.5,227C 98.1667,226.667 96.8333,226.333 95.5,226C 96.1667,225.667 96.8333,225.333 97.5,225C 93.5,224.333 93.5,223.667 97.5,223C 95.3367,222.755 93.67,221.755 92.5,220C 96.1851,219.086 95.8518,218.419 91.5,218C 92.1667,217.667 92.8333,217.333 93.5,217C 89.5,216.333 89.5,215.667 93.5,215C 91.3367,214.755 89.67,213.755 88.5,212C 88.8333,211.667 89.1667,211.333 89.5,211C 86.8333,210.333 86.8333,209.667 89.5,209C 85.5,208.333 85.5,207.667 89.5,207C 87.3367,206.755 85.67,205.755 84.5,204C 88.1851,203.086 87.8518,202.419 83.5,202C 84.1667,201.667 84.8333,201.333 85.5,201C 81.5,200.333 81.5,199.667 85.5,199C 83.3367,198.755 81.67,197.755 80.5,196C 84.1851,195.086 83.8518,194.419 79.5,194C 82.1667,193.333 82.1667,192.667 79.5,192C 81.8776,191.026 81.5443,190.359 78.5,190C 78.8333,189.667 79.1667,189.333 79.5,189C 76.8333,188.333 76.8333,187.667 79.5,187C 77.2853,186.612 75.952,185.612 75.5,184C 76.1667,183.667 76.8333,183.333 77.5,183C 75.2853,182.612 73.952,181.612 73.5,180C 74.8333,179.667 76.1667,179.333 77.5,179C 75.3367,178.755 73.67,177.755 72.5,176C 72.8333,175.667 73.1667,175.333 73.5,175C 72.1667,174.333 71.1667,173.333 70.5,172C 74.1851,171.086 73.8518,170.419 69.5,170C 72.1667,169.333 72.1667,168.667 69.5,168C 71.8776,167.026 71.5443,166.359 68.5,166C 68.8333,165.667 69.1667,165.333 69.5,165C 66.8333,164.333 66.8333,163.667 69.5,163C 67.2853,162.612 65.952,161.612 65.5,160C 70.7208,159.458 70.7208,158.624 65.5,157.5C 64.3595,156.575 64.3595,155.741 65.5,155C 64.8333,154.667 64.1667,154.333 63.5,154C 66.1667,153.333 66.1667,152.667 63.5,152C 65.8776,151.026 65.5443,150.359 62.5,150C 62.8333,149.667 63.1667,149.333 63.5,149C 60.8333,148.333 60.8333,147.667 63.5,147C 62.1667,146.333 61.1667,145.333 60.5,144C 64.1851,143.086 63.8518,142.419 59.5,142C 60.1667,141.667 60.8333,141.333 61.5,141C 58.8333,140.333 58.8333,139.667 61.5,139C 59.2853,138.612 57.952,137.612 57.5,136C 62.7208,135.458 62.7208,134.624 57.5,133.5C 56.3595,132.575 56.3595,131.741 57.5,131C 56.8333,130.667 56.1667,130.333 55.5,130C 58.1667,129.333 58.1667,128.667 55.5,128C 57.8776,127.026 57.5443,126.359 54.5,126C 55.8333,125.333 55.8333,124.667 54.5,124C 58.1851,123.086 57.8518,122.419 53.5,122C 54.1667,121.667 54.8333,121.333 55.5,121C 52.8333,120.333 52.8333,119.667 55.5,119C 53.2853,118.612 51.952,117.612 51.5,116C 54.1667,115.333 54.1667,114.667 51.5,114C 53.8776,113.026 53.5443,112.359 50.5,112C 51.8333,111.333 51.8333,110.667 50.5,110C 54.1851,109.086 53.8518,108.419 49.5,108C 52.1667,107.333 52.1667,106.667 49.5,106C 54.5081,105.131 54.1748,104.464 48.5,104C 48.8333,103 49.1667,102 49.5,101C 46.8333,100.333 46.8333,99.6667 49.5,99C 46.8333,98.3333 46.8333,97.6667 49.5,97C 46.0536,95.0372 46.0536,93.7039 49.5,93C 47.2853,92.6124 45.952,91.6124 45.5,90C 46.8333,89.6667 48.1667,89.3333 49.5,89C 47.3367,88.7547 45.67,87.7547 44.5,86C 48.5,85.3333 48.5,84.6667 44.5,84C 45.8333,83.3333 45.8333,82.6667 44.5,82C 48.1851,81.0855 47.8518,80.4189 43.5,80C 44.1667,79.6667 44.8333,79.3333 45.5,79C 42.8333,78.3333 42.8333,77.6667 45.5,77C 42.8333,76.3333 42.8333,75.6667 45.5,75C 41.5,74.3333 41.5,73.6667 45.5,73C 43.2853,72.6124 41.952,71.6124 41.5,70C 46.7937,69.1822 46.7937,68.6822 41.5,68.5C 41.5,67.5 41.5,66.5 41.5,65.5C 46.4675,65.1341 46.1342,64.6341 40.5,64C 41.8333,63.3333 41.8333,62.6667 40.5,62C 44.5,61.3333 44.5,60.6667 40.5,60C 40.8333,59 41.1667,58 41.5,57C 40.8333,56.6667 40.1667,56.3333 39.5,56C 42.1667,55.3333 42.1667,54.6667 39.5,54C 42.1667,53.3333 42.1667,52.6667 39.5,52C 41.8776,51.0255 41.5443,50.3589 38.5,50C 42.5,49.3333 42.5,48.6667 38.5,48C 39.8333,47.3333 39.8333,46.6667 38.5,46C 42.5,45.3333 42.5,44.6667 38.5,44C 39.8333,43.3333 39.8333,42.6667 38.5,42C 42.2259,40.9568 41.8926,40.4568 37.5,40.5C 37.3601,38.8762 38.0267,37.7096 39.5,37C 36.8333,35.6667 36.8333,34.3333 39.5,33C 38.1667,32.3333 37.1667,31.3333 36.5,30C 40.5,29.3333 40.5,28.6667 36.5,28C 37.8333,27.3333 37.8333,26.6667 36.5,26C 40.5,25.3333 40.5,24.6667 36.5,24C 36.8333,22.3333 37.1667,20.6667 37.5,19C 36.8333,18.6667 36.1667,18.3333 35.5,18C 40.8333,17.3333 40.8333,16.6667 35.5,16C 36.1667,15.6667 36.8333,15.3333 37.5,15C 34.8333,14.3333 34.8333,13.6667 37.5,13C 34.8333,12.3333 34.8333,11.6667 37.5,11C 34.8333,10.3333 34.8333,9.66667 37.5,9C 34.8333,8.33333 34.8333,7.66667 37.5,7C 34.8333,6.33333 34.8333,5.66667 37.5,5C 34.8333,4.33333 34.8333,3.66667 37.5,3C 34.8333,2.33333 34.8333,1.66667 37.5,1C 36.5842,0.721579 35.9175,0.221579 35.5,-0.5 Z"/></g>
<g><path style="opacity:1" fill="#4e4e4e" d="M 121.5,-0.5 C 158.833,-0.5 196.167,-0.5 233.5,-0.5C 234.609,0.28997 235.942,0.78997 237.5,1C 236.207,1.49001 234.873,1.65668 233.5,1.5C 233.36,3.12377 234.027,4.29044 235.5,5C 234.027,5.70956 233.36,6.87623 233.5,8.5C 238.794,8.68216 238.794,9.18216 233.5,10C 236.167,10.6667 236.167,11.3333 233.5,12C 238.833,12.6667 238.833,13.3333 233.5,14C 233.952,15.6124 235.285,16.6124 237.5,17C 236.5,17.3333 235.5,17.6667 234.5,18C 235.833,18.6667 235.833,19.3333 234.5,20C 238.5,20.6667 238.5,21.3333 234.5,22C 235.167,23.3333 236.167,24.3333 237.5,25C 234.833,25.6667 234.833,26.3333 237.5,27C 234.833,27.6667 234.833,28.3333 237.5,29C 236.833,29.3333 236.167,29.6667 235.5,30C 235.952,31.6124 237.285,32.6124 239.5,33C 238.5,33.3333 237.5,33.6667 236.5,34C 237.833,34.6667 237.833,35.3333 236.5,36C 237.5,36.3333 238.5,36.6667 239.5,37C 238.027,37.7096 237.36,38.8762 237.5,40.5C 242.794,40.6822 242.794,41.1822 237.5,42C 237.952,43.6124 239.285,44.6124 241.5,45C 238.238,45.8536 238.238,47.3536 241.5,49.5C 232.342,51.8216 226.175,57.4882 223,66.5C 221.851,80.4374 217.851,93.4374 211,105.5C 204.244,112.252 198.244,119.586 193,127.5C 184.664,143.721 176.83,160.055 169.5,176.5C 166.903,176.279 166.903,175.779 169.5,175C 167.285,174.612 165.952,173.612 165.5,172C 166.167,171.667 166.833,171.333 167.5,171C 165.285,170.612 163.952,169.612 163.5,168C 164.167,167.667 164.833,167.333 165.5,167C 161.67,166.593 161.003,165.26 163.5,163C 161.285,162.612 159.952,161.612 159.5,160C 160.167,159.667 160.833,159.333 161.5,159C 159.285,158.612 157.952,157.612 157.5,156C 158.167,155.667 158.833,155.333 159.5,155C 157.285,154.612 155.952,153.612 155.5,152C 156.167,151.667 156.833,151.333 157.5,151C 154.054,149.037 154.054,147.704 157.5,147C 155.337,146.755 153.67,145.755 152.5,144C 156.185,143.086 155.852,142.419 151.5,142C 153.878,141.026 153.544,140.359 150.5,140C 154.5,139.333 154.5,138.667 150.5,138C 150.833,137.667 151.167,137.333 151.5,137C 148.833,136.333 148.833,135.667 151.5,135C 149.285,134.612 147.952,133.612 147.5,132C 148.167,131.667 148.833,131.333 149.5,131C 146.833,130.333 146.833,129.667 149.5,129C 145.5,128.333 145.5,127.667 149.5,127C 147.337,126.755 145.67,125.755 144.5,124C 148.5,123.333 148.5,122.667 144.5,122C 145.634,120.984 145.301,120.317 143.5,120C 145.878,119.026 145.544,118.359 142.5,118C 143.833,117.333 143.833,116.667 142.5,116C 143.5,115.667 144.5,115.333 145.5,115C 141.146,114.235 139.813,112.235 141.5,109C 138.833,108.333 138.833,107.667 141.5,107C 138.833,106.333 138.833,105.667 141.5,105C 139.285,104.612 137.952,103.612 137.5,102C 138.833,101.667 140.167,101.333 141.5,101C 139.337,100.755 137.67,99.7547 136.5,98C 137.5,97.6667 138.5,97.3333 139.5,97C 137.285,96.6124 135.952,95.6124 135.5,94C 138.167,93.3333 138.167,92.6667 135.5,92C 137.878,91.0255 137.544,90.3589 134.5,90C 138.5,89.3333 138.5,88.6667 134.5,88C 134.833,87.6667 135.167,87.3333 135.5,87C 132.833,86.3333 132.833,85.6667 135.5,85C 134.167,84.3333 133.167,83.3333 132.5,82C 136.5,81.3333 136.5,80.6667 132.5,80C 132.833,79.6667 133.167,79.3333 133.5,79C 130.833,78.3333 130.833,77.6667 133.5,77C 130.833,76.3333 130.833,75.6667 133.5,75C 129.5,74.3333 129.5,73.6667 133.5,73C 131.285,72.6124 129.952,71.6124 129.5,70C 134.794,69.1822 134.794,68.6822 129.5,68.5C 129.5,67.5 129.5,66.5 129.5,65.5C 134.468,65.1341 134.134,64.6341 128.5,64C 128.833,62.3333 129.167,60.6667 129.5,59C 128.833,58.6667 128.167,58.3333 127.5,58C 130.167,57.3333 130.167,56.6667 127.5,56C 130.167,55.3333 130.167,54.6667 127.5,54C 129.878,53.0255 129.544,52.3589 126.5,52C 127.833,51.3333 127.833,50.6667 126.5,50C 127.5,49.6667 128.5,49.3333 129.5,49C 127.285,48.6124 125.952,47.6124 125.5,46C 130.794,45.1822 130.794,44.6822 125.5,44.5C 125.36,42.8762 126.027,41.7096 127.5,41C 126.5,40.6667 125.5,40.3333 124.5,40C 125.833,39.3333 125.833,38.6667 124.5,38C 128.5,37.3333 128.5,36.6667 124.5,36C 125.833,35.3333 125.833,34.6667 124.5,34C 128.185,33.0855 127.852,32.4189 123.5,32C 126.167,31.3333 126.167,30.6667 123.5,30C 126.167,29.3333 126.167,28.6667 123.5,28C 126.167,27.3333 126.167,26.6667 123.5,26C 126.167,25.3333 126.167,24.6667 123.5,24C 125.878,23.0255 125.544,22.3589 122.5,22C 126.5,21.3333 126.5,20.6667 122.5,20C 126.5,19.3333 126.5,18.6667 122.5,18C 126.5,17.3333 126.5,16.6667 122.5,16C 123.833,15.3333 123.833,14.6667 122.5,14C 126.5,13.3333 126.5,12.6667 122.5,12C 123.833,11.3333 123.833,10.6667 122.5,10C 123.5,9.66667 124.5,9.33333 125.5,9C 123.285,8.61239 121.952,7.61239 121.5,6C 126.833,5.33333 126.833,4.66667 121.5,4C 124.167,3.33333 124.167,2.66667 121.5,2C 122.833,1.66667 124.167,1.33333 125.5,1C 123.942,0.78997 122.609,0.28997 121.5,-0.5 Z"/></g>
<g><path style="opacity:1" fill="#545454" d="M 233.5,-0.5 C 262.167,-0.5 290.833,-0.5 319.5,-0.5C 319.918,0.221579 320.584,0.721579 321.5,1C 318.833,1.66667 318.833,2.33333 321.5,3C 318.833,3.66667 318.833,4.33333 321.5,5C 321.167,6 320.833,7 320.5,8C 324.5,8.66667 324.5,9.33333 320.5,10C 321.833,10.6667 321.833,11.3333 320.5,12C 324.5,12.6667 324.5,13.3333 320.5,14C 321.67,15.7547 323.337,16.7547 325.5,17C 324.167,17.3333 322.833,17.6667 321.5,18C 324.167,18.6667 324.167,19.3333 321.5,20C 325.852,20.4189 326.185,21.0855 322.5,22C 323.833,22.6667 323.833,23.3333 322.5,24C 326.5,24.6667 326.5,25.3333 322.5,26C 325.544,26.3589 325.878,27.0255 323.5,28C 326.167,28.6667 326.167,29.3333 323.5,30C 323.952,31.6124 325.285,32.6124 327.5,33C 326.5,33.3333 325.5,33.6667 324.5,34C 325.833,34.6667 325.833,35.3333 324.5,36C 325.5,36.3333 326.5,36.6667 327.5,37C 326.027,37.7096 325.36,38.8762 325.5,40.5C 329.893,40.4568 330.226,40.9568 326.5,42C 329.544,42.3589 329.878,43.0255 327.5,44C 330.167,44.6667 330.167,45.3333 327.5,46C 329.301,46.3173 329.634,46.984 328.5,48C 332.5,48.6667 332.5,49.3333 328.5,50C 329.67,51.7547 331.337,52.7547 333.5,53C 332.5,53.3333 331.5,53.6667 330.5,54C 331.833,54.6667 331.833,55.3333 330.5,56C 333.544,56.3589 333.878,57.0255 331.5,58C 333.301,58.3173 333.634,58.984 332.5,60C 336.5,60.6667 336.5,61.3333 332.5,62C 333.67,63.7547 335.337,64.7547 337.5,65C 333.5,65.6667 333.5,66.3333 337.5,67C 334.833,67.6667 334.833,68.3333 337.5,69C 334.833,69.6667 334.833,70.3333 337.5,71C 337.167,71.3333 336.833,71.6667 336.5,72C 342.175,72.4641 342.508,73.1307 337.5,74C 337.952,75.6124 339.285,76.6124 341.5,77C 338.833,77.6667 338.833,78.3333 341.5,79C 341.167,79.3333 340.833,79.6667 340.5,80C 346.175,80.4641 346.508,81.1307 341.5,82C 341.952,83.6124 343.285,84.6124 345.5,85C 342.833,85.6667 342.833,86.3333 345.5,87C 345.167,87.3333 344.833,87.6667 344.5,88C 350.175,88.4641 350.508,89.1307 345.5,90C 345.952,91.6124 347.285,92.6124 349.5,93C 346.833,93.6667 346.833,94.3333 349.5,95C 349.167,95.3333 348.833,95.6667 348.5,96C 350.167,96.3333 351.833,96.6667 353.5,97C 349.5,97.6667 349.5,98.3333 353.5,99C 350.833,99.6667 350.833,100.333 353.5,101C 353.167,101.333 352.833,101.667 352.5,102C 353.67,103.755 355.337,104.755 357.5,105C 354.833,105.667 354.833,106.333 357.5,107C 357.167,107.333 356.833,107.667 356.5,108C 362.175,108.464 362.508,109.131 357.5,110C 358.833,111 360.167,112 361.5,113C 361.167,113.333 360.833,113.667 360.5,114C 362.167,114.333 363.833,114.667 365.5,115C 361.5,115.667 361.5,116.333 365.5,117C 364.833,117.333 364.167,117.667 363.5,118C 365.5,118.333 367.5,118.667 369.5,119C 368.167,119.333 366.833,119.667 365.5,120C 367.301,120.317 367.634,120.984 366.5,122C 367.929,123.982 370.262,125.648 373.5,127C 372.833,127.333 372.167,127.667 371.5,128C 373.226,129.53 375.226,130.53 377.5,131C 376.833,131.333 376.167,131.667 375.5,132C 377.226,133.53 379.226,134.53 381.5,135C 380.833,135.333 380.167,135.667 379.5,136C 381.226,137.53 383.226,138.53 385.5,139C 384.833,139.333 384.167,139.667 383.5,140C 385.226,141.53 387.226,142.53 389.5,143C 388.833,143.333 388.167,143.667 387.5,144C 389.226,145.53 391.226,146.53 393.5,147C 392.833,147.333 392.167,147.667 391.5,148C 393.845,149.783 396.512,150.783 399.5,151C 395.5,151.667 395.5,152.333 399.5,153C 399.167,153.333 398.833,153.667 398.5,154C 400.833,154.333 403.167,154.667 405.5,155C 400.167,155.667 400.167,156.333 405.5,157C 404.833,157.333 404.167,157.667 403.5,158C 405.5,158.333 407.5,158.667 409.5,159C 408.5,159.333 407.5,159.667 406.5,160C 408.133,160.48 409.466,161.313 410.5,162.5C 410.5,195.833 410.5,229.167 410.5,262.5C 409.17,261.168 407.503,260.335 405.5,260C 406.833,259.667 408.167,259.333 409.5,259C 405.335,258.626 401.335,257.626 397.5,256C 398.833,255.667 400.167,255.333 401.5,255C 397.335,254.626 393.335,253.626 389.5,252C 390.833,251.667 392.167,251.333 393.5,251C 389.529,250.915 385.862,249.915 382.5,248C 383.5,247.667 384.5,247.333 385.5,247C 381.885,246.465 378.885,245.465 376.5,244C 376.833,243.667 377.167,243.333 377.5,243C 374.833,242 372.167,241 369.5,240C 370.833,239.667 372.167,239.333 373.5,239C 369.808,239.004 366.475,238.004 363.5,236C 364.167,235.667 364.833,235.333 365.5,235C 363.047,234.273 360.714,233.273 358.5,232C 359.5,231.667 360.5,231.333 361.5,231C 358.292,230.597 355.292,229.597 352.5,228C 353.5,227.667 354.5,227.333 355.5,227C 352.114,226.618 349.448,225.618 347.5,224C 348.167,223.667 348.833,223.333 349.5,223C 347.047,222.273 344.714,221.273 342.5,220C 343.5,219.667 344.5,219.333 345.5,219C 342.114,218.618 339.448,217.618 337.5,216C 338.833,215.667 340.167,215.333 341.5,215C 338.512,214.783 335.845,213.783 333.5,212C 334.167,211.667 334.833,211.333 335.5,211C 334.167,210.667 332.833,210.333 331.5,210C 332.167,209.667 332.833,209.333 333.5,209C 328.167,208.333 328.167,207.667 333.5,207C 331.167,206.667 328.833,206.333 326.5,206C 326.833,205.667 327.167,205.333 327.5,205C 323.5,204.333 323.5,203.667 327.5,203C 325.833,202.667 324.167,202.333 322.5,202C 322.833,201.667 323.167,201.333 323.5,201C 322.5,200.667 321.5,200.333 320.5,200C 322.167,199.667 323.833,199.333 325.5,199C 323.167,198.667 320.833,198.333 318.5,198C 318.833,197.667 319.167,197.333 319.5,197C 315.5,196.333 315.5,195.667 319.5,195C 317.833,194.667 316.167,194.333 314.5,194C 318.185,193.086 317.852,192.419 313.5,192C 314.833,191.667 316.167,191.333 317.5,191C 314.512,190.783 311.845,189.783 309.5,188C 310.167,187.667 310.833,187.333 311.5,187C 310.167,186.667 308.833,186.333 307.5,186C 308.167,185.667 308.833,185.333 309.5,185C 304.167,184.333 304.167,183.667 309.5,183C 307.833,182.667 306.167,182.333 304.5,182C 304.833,181.667 305.167,181.333 305.5,181C 301.5,180.333 301.5,179.667 305.5,179C 303.833,178.667 302.167,178.333 300.5,178C 301.634,176.984 301.301,176.317 299.5,176C 300.167,175.667 300.833,175.333 301.5,175C 300.062,174.781 298.729,174.281 297.5,173.5C 296.359,172.575 296.359,171.741 297.5,171C 295.285,170.612 293.952,169.612 293.5,168C 294.167,167.667 294.833,167.333 295.5,167C 294.167,166.667 292.833,166.333 291.5,166C 293.878,165.026 293.544,164.359 290.5,164C 291.5,163.667 292.5,163.333 293.5,163C 291.833,162.667 290.167,162.333 288.5,162C 289.634,160.984 289.301,160.317 287.5,160C 288.167,159.667 288.833,159.333 289.5,159C 287.337,158.755 285.67,157.755 284.5,156C 285.5,155.667 286.5,155.333 287.5,155C 285.5,154 283.5,153 281.5,152C 286.508,151.131 286.175,150.464 280.5,150C 281.634,148.984 281.301,148.317 279.5,148C 280.167,147.667 280.833,147.333 281.5,147C 279.833,146 278.167,145 276.5,144C 280.185,143.086 279.852,142.419 275.5,142C 277.878,141.026 277.544,140.359 274.5,140C 275.5,139.667 276.5,139.333 277.5,139C 276.062,138.781 274.729,138.281 273.5,137.5C 272.359,136.575 272.359,135.741 273.5,135C 272.167,134 270.833,133 269.5,132C 274.508,131.131 274.175,130.464 268.5,130C 269.634,128.984 269.301,128.317 267.5,128C 268.167,127.667 268.833,127.333 269.5,127C 267.285,126.612 265.952,125.612 265.5,124C 270.508,123.131 270.175,122.464 264.5,122C 265.634,120.984 265.301,120.317 263.5,120C 265.878,119.026 265.544,118.359 262.5,118C 263.634,116.984 263.301,116.317 261.5,116C 262.167,115.667 262.833,115.333 263.5,115C 261.285,114.612 259.952,113.612 259.5,112C 262.167,111.333 262.167,110.667 259.5,110C 260.167,109.667 260.833,109.333 261.5,109C 259.285,108.612 257.952,107.612 257.5,106C 262.508,105.131 262.175,104.464 256.5,104C 257.634,102.984 257.301,102.317 255.5,102C 256.167,101.667 256.833,101.333 257.5,101C 255.285,100.612 253.952,99.6124 253.5,98C 258.721,97.4577 258.721,96.6244 253.5,95.5C 252.944,94.3366 252.611,93.3366 252.5,92.5C 262.5,85.3432 266.333,75.6765 264,63.5C 259.688,53.9177 252.188,49.251 241.5,49.5C 238.238,47.3536 238.238,45.8536 241.5,45C 239.285,44.6124 237.952,43.6124 237.5,42C 242.794,41.1822 242.794,40.6822 237.5,40.5C 237.36,38.8762 238.027,37.7096 239.5,37C 238.5,36.6667 237.5,36.3333 236.5,36C 237.833,35.3333 237.833,34.6667 236.5,34C 237.5,33.6667 238.5,33.3333 239.5,33C 237.285,32.6124 235.952,31.6124 235.5,30C 236.167,29.6667 236.833,29.3333 237.5,29C 234.833,28.3333 234.833,27.6667 237.5,27C 234.833,26.3333 234.833,25.6667 237.5,25C 236.167,24.3333 235.167,23.3333 234.5,22C 238.5,21.3333 238.5,20.6667 234.5,20C 235.833,19.3333 235.833,18.6667 234.5,18C 235.5,17.6667 236.5,17.3333 237.5,17C 235.285,16.6124 233.952,15.6124 233.5,14C 238.833,13.3333 238.833,12.6667 233.5,12C 236.167,11.3333 236.167,10.6667 233.5,10C 238.794,9.18216 238.794,8.68216 233.5,8.5C 233.36,6.87623 234.027,5.70956 235.5,5C 234.027,4.29044 233.36,3.12377 233.5,1.5C 234.873,1.65668 236.207,1.49001 237.5,1C 235.942,0.78997 234.609,0.28997 233.5,-0.5 Z"/></g>
<g><path style="opacity:1" fill="#595959" d="M 319.5,-0.5 C 349.833,-0.5 380.167,-0.5 410.5,-0.5C 410.5,53.8333 410.5,108.167 410.5,162.5C 409.466,161.313 408.133,160.48 406.5,160C 407.5,159.667 408.5,159.333 409.5,159C 407.5,158.667 405.5,158.333 403.5,158C 404.167,157.667 404.833,157.333 405.5,157C 400.167,156.333 400.167,155.667 405.5,155C 403.167,154.667 400.833,154.333 398.5,154C 398.833,153.667 399.167,153.333 399.5,153C 395.5,152.333 395.5,151.667 399.5,151C 396.512,150.783 393.845,149.783 391.5,148C 392.167,147.667 392.833,147.333 393.5,147C 391.226,146.53 389.226,145.53 387.5,144C 388.167,143.667 388.833,143.333 389.5,143C 387.226,142.53 385.226,141.53 383.5,140C 384.167,139.667 384.833,139.333 385.5,139C 383.226,138.53 381.226,137.53 379.5,136C 380.167,135.667 380.833,135.333 381.5,135C 379.226,134.53 377.226,133.53 375.5,132C 376.167,131.667 376.833,131.333 377.5,131C 375.226,130.53 373.226,129.53 371.5,128C 372.167,127.667 372.833,127.333 373.5,127C 370.262,125.648 367.929,123.982 366.5,122C 367.634,120.984 367.301,120.317 365.5,120C 366.833,119.667 368.167,119.333 369.5,119C 367.5,118.667 365.5,118.333 363.5,118C 364.167,117.667 364.833,117.333 365.5,117C 361.5,116.333 361.5,115.667 365.5,115C 363.833,114.667 362.167,114.333 360.5,114C 360.833,113.667 361.167,113.333 361.5,113C 360.167,112 358.833,111 357.5,110C 362.508,109.131 362.175,108.464 356.5,108C 356.833,107.667 357.167,107.333 357.5,107C 354.833,106.333 354.833,105.667 357.5,105C 355.337,104.755 353.67,103.755 352.5,102C 352.833,101.667 353.167,101.333 353.5,101C 350.833,100.333 350.833,99.6667 353.5,99C 349.5,98.3333 349.5,97.6667 353.5,97C 351.833,96.6667 350.167,96.3333 348.5,96C 348.833,95.6667 349.167,95.3333 349.5,95C 346.833,94.3333 346.833,93.6667 349.5,93C 347.285,92.6124 345.952,91.6124 345.5,90C 350.508,89.1307 350.175,88.4641 344.5,88C 344.833,87.6667 345.167,87.3333 345.5,87C 342.833,86.3333 342.833,85.6667 345.5,85C 343.285,84.6124 341.952,83.6124 341.5,82C 346.508,81.1307 346.175,80.4641 340.5,80C 340.833,79.6667 341.167,79.3333 341.5,79C 338.833,78.3333 338.833,77.6667 341.5,77C 339.285,76.6124 337.952,75.6124 337.5,74C 342.508,73.1307 342.175,72.4641 336.5,72C 336.833,71.6667 337.167,71.3333 337.5,71C 334.833,70.3333 334.833,69.6667 337.5,69C 334.833,68.3333 334.833,67.6667 337.5,67C 333.5,66.3333 333.5,65.6667 337.5,65C 335.337,64.7547 333.67,63.7547 332.5,62C 336.5,61.3333 336.5,60.6667 332.5,60C 333.634,58.984 333.301,58.3173 331.5,58C 333.878,57.0255 333.544,56.3589 330.5,56C 331.833,55.3333 331.833,54.6667 330.5,54C 331.5,53.6667 332.5,53.3333 333.5,53C 331.337,52.7547 329.67,51.7547 328.5,50C 332.5,49.3333 332.5,48.6667 328.5,48C 329.634,46.984 329.301,46.3173 327.5,46C 330.167,45.3333 330.167,44.6667 327.5,44C 329.878,43.0255 329.544,42.3589 326.5,42C 330.226,40.9568 329.893,40.4568 325.5,40.5C 325.36,38.8762 326.027,37.7096 327.5,37C 326.5,36.6667 325.5,36.3333 324.5,36C 325.833,35.3333 325.833,34.6667 324.5,34C 325.5,33.6667 326.5,33.3333 327.5,33C 325.285,32.6124 323.952,31.6124 323.5,30C 326.167,29.3333 326.167,28.6667 323.5,28C 325.878,27.0255 325.544,26.3589 322.5,26C 326.5,25.3333 326.5,24.6667 322.5,24C 323.833,23.3333 323.833,22.6667 322.5,22C 326.185,21.0855 325.852,20.4189 321.5,20C 324.167,19.3333 324.167,18.6667 321.5,18C 322.833,17.6667 324.167,17.3333 325.5,17C 323.337,16.7547 321.67,15.7547 320.5,14C 324.5,13.3333 324.5,12.6667 320.5,12C 321.833,11.3333 321.833,10.6667 320.5,10C 324.5,9.33333 324.5,8.66667 320.5,8C 320.833,7 321.167,6 321.5,5C 318.833,4.33333 318.833,3.66667 321.5,3C 318.833,2.33333 318.833,1.66667 321.5,1C 320.584,0.721579 319.918,0.221579 319.5,-0.5 Z"/></g>
<g><path style="opacity:1" fill="#f8f8f8" d="M 161.5,49.5 C 172.861,48.4298 181.361,52.7632 187,62.5C 189.509,71.0431 191.509,79.7098 193,88.5C 195.196,95.8932 198.696,102.56 203.5,108.5C 199.431,112.399 195.931,116.733 193,121.5C 188.671,111.825 184.837,101.992 181.5,92C 178.691,91.8201 176.024,92.4868 173.5,94C 156.84,95.1516 148.174,87.3183 147.5,70.5C 146.823,63.6902 149.157,58.1902 154.5,54C 156.898,52.4758 159.231,50.9758 161.5,49.5 Z"/></g>
<g><path style="opacity:1" fill="#fafafa" d="M 241.5,49.5 C 252.188,49.251 259.688,53.9177 264,63.5C 266.333,75.6765 262.5,85.3432 252.5,92.5C 245.304,95.4118 238.304,95.0784 231.5,91.5C 230.833,91.8333 230.167,92.1667 229.5,92.5C 226.235,101.128 223.068,109.795 220,118.5C 206.489,146.189 192.989,173.855 179.5,201.5C 175.934,208.964 172.101,216.297 168,223.5C 161.639,216.728 159.305,208.728 161,199.5C 163.284,191.604 166.118,183.938 169.5,176.5C 176.83,160.055 184.664,143.721 193,127.5C 198.244,119.586 204.244,112.252 211,105.5C 217.851,93.4374 221.851,80.4374 223,66.5C 226.175,57.4882 232.342,51.8216 241.5,49.5 Z"/></g>
<g><path style="opacity:1" fill="#505050" d="M 162.5,59.5 C 176.011,58.5011 181.511,64.5011 179,77.5C 175.716,83.8867 170.549,86.0534 163.5,84C 157.03,79.874 154.863,74.0407 157,66.5C 158.666,64.0043 160.5,61.671 162.5,59.5 Z"/></g>
<g><path style="opacity:1" fill="#535353" d="M 239.5,59.5 C 254.153,59.3192 258.653,65.9859 253,79.5C 248.433,84.6805 242.933,85.8472 236.5,83C 229.176,74.0941 230.176,66.2607 239.5,59.5 Z"/></g>
<g><path style="opacity:1" fill="#4e4e4e" d="M 252.5,92.5 C 252.611,93.3366 252.944,94.3366 253.5,95.5C 258.721,96.6244 258.721,97.4577 253.5,98C 253.952,99.6124 255.285,100.612 257.5,101C 256.833,101.333 256.167,101.667 255.5,102C 257.301,102.317 257.634,102.984 256.5,104C 262.175,104.464 262.508,105.131 257.5,106C 257.952,107.612 259.285,108.612 261.5,109C 260.833,109.333 260.167,109.667 259.5,110C 262.167,110.667 262.167,111.333 259.5,112C 259.952,113.612 261.285,114.612 263.5,115C 262.833,115.333 262.167,115.667 261.5,116C 263.301,116.317 263.634,116.984 262.5,118C 265.544,118.359 265.878,119.026 263.5,120C 265.301,120.317 265.634,120.984 264.5,122C 270.175,122.464 270.508,123.131 265.5,124C 265.952,125.612 267.285,126.612 269.5,127C 268.833,127.333 268.167,127.667 267.5,128C 269.301,128.317 269.634,128.984 268.5,130C 274.175,130.464 274.508,131.131 269.5,132C 270.833,133 272.167,134 273.5,135C 272.359,135.741 272.359,136.575 273.5,137.5C 274.729,138.281 276.062,138.781 277.5,139C 276.5,139.333 275.5,139.667 274.5,140C 277.544,140.359 277.878,141.026 275.5,142C 279.852,142.419 280.185,143.086 276.5,144C 278.167,145 279.833,146 281.5,147C 280.833,147.333 280.167,147.667 279.5,148C 281.301,148.317 281.634,148.984 280.5,150C 286.175,150.464 286.508,151.131 281.5,152C 283.5,153 285.5,154 287.5,155C 286.5,155.333 285.5,155.667 284.5,156C 285.67,157.755 287.337,158.755 289.5,159C 288.833,159.333 288.167,159.667 287.5,160C 289.301,160.317 289.634,160.984 288.5,162C 290.167,162.333 291.833,162.667 293.5,163C 292.5,163.333 291.5,163.667 290.5,164C 293.544,164.359 293.878,165.026 291.5,166C 292.833,166.333 294.167,166.667 295.5,167C 294.833,167.333 294.167,167.667 293.5,168C 293.952,169.612 295.285,170.612 297.5,171C 296.359,171.741 296.359,172.575 297.5,173.5C 298.729,174.281 300.062,174.781 301.5,175C 300.833,175.333 300.167,175.667 299.5,176C 301.301,176.317 301.634,176.984 300.5,178C 302.167,178.333 303.833,178.667 305.5,179C 301.5,179.667 301.5,180.333 305.5,181C 305.167,181.333 304.833,181.667 304.5,182C 306.167,182.333 307.833,182.667 309.5,183C 304.167,183.667 304.167,184.333 309.5,185C 308.833,185.333 308.167,185.667 307.5,186C 308.833,186.333 310.167,186.667 311.5,187C 310.833,187.333 310.167,187.667 309.5,188C 311.845,189.783 314.512,190.783 317.5,191C 316.167,191.333 314.833,191.667 313.5,192C 317.852,192.419 318.185,193.086 314.5,194C 316.167,194.333 317.833,194.667 319.5,195C 315.5,195.667 315.5,196.333 319.5,197C 319.167,197.333 318.833,197.667 318.5,198C 320.833,198.333 323.167,198.667 325.5,199C 323.833,199.333 322.167,199.667 320.5,200C 321.5,200.333 322.5,200.667 323.5,201C 323.167,201.333 322.833,201.667 322.5,202C 324.167,202.333 325.833,202.667 327.5,203C 323.5,203.667 323.5,204.333 327.5,205C 327.167,205.333 326.833,205.667 326.5,206C 328.833,206.333 331.167,206.667 333.5,207C 328.167,207.667 328.167,208.333 333.5,209C 332.833,209.333 332.167,209.667 331.5,210C 332.833,210.333 334.167,210.667 335.5,211C 334.833,211.333 334.167,211.667 333.5,212C 335.845,213.783 338.512,214.783 341.5,215C 340.167,215.333 338.833,215.667 337.5,216C 339.448,217.618 342.114,218.618 345.5,219C 344.5,219.333 343.5,219.667 342.5,220C 344.714,221.273 347.047,222.273 349.5,223C 348.833,223.333 348.167,223.667 347.5,224C 349.448,225.618 352.114,226.618 355.5,227C 354.5,227.333 353.5,227.667 352.5,228C 355.292,229.597 358.292,230.597 361.5,231C 360.5,231.333 359.5,231.667 358.5,232C 360.714,233.273 363.047,234.273 365.5,235C 364.833,235.333 364.167,235.667 363.5,236C 366.475,238.004 369.808,239.004 373.5,239C 372.167,239.333 370.833,239.667 369.5,240C 372.167,241 374.833,242 377.5,243C 377.167,243.333 376.833,243.667 376.5,244C 378.885,245.465 381.885,246.465 385.5,247C 384.5,247.333 383.5,247.667 382.5,248C 385.862,249.915 389.529,250.915 393.5,251C 392.167,251.333 390.833,251.667 389.5,252C 393.335,253.626 397.335,254.626 401.5,255C 400.167,255.333 398.833,255.667 397.5,256C 401.335,257.626 405.335,258.626 409.5,259C 408.167,259.333 406.833,259.667 405.5,260C 407.503,260.335 409.17,261.168 410.5,262.5C 410.5,301.833 410.5,341.167 410.5,380.5C 407.279,379.495 403.946,378.661 400.5,378C 402.167,377.667 403.833,377.333 405.5,377C 402.167,376.667 398.833,376.333 395.5,376C 397.595,375.444 397.762,374.944 396,374.5C 393.943,375.14 391.777,374.973 389.5,374C 390.833,373.667 392.167,373.333 393.5,373C 390.5,372.667 387.5,372.333 384.5,372C 384.833,371.667 385.167,371.333 385.5,371C 383.5,370.667 381.5,370.333 379.5,370C 380.167,369.667 380.833,369.333 381.5,369C 376.036,367.964 370.702,366.297 365.5,364C 366.833,363.667 368.167,363.333 369.5,363C 365.054,362.472 360.721,361.472 356.5,360C 358.167,359.667 359.833,359.333 361.5,359C 358.5,358.667 355.5,358.333 352.5,358C 352.833,357.667 353.167,357.333 353.5,357C 346.833,356.333 346.833,355.667 353.5,355C 350.5,354.667 347.5,354.333 344.5,354C 344.833,353.667 345.167,353.333 345.5,353C 338.833,352.333 338.833,351.667 345.5,351C 341.335,350.626 337.335,349.626 333.5,348C 334.833,347.667 336.167,347.333 337.5,347C 333.529,346.915 329.862,345.915 326.5,344C 327.5,343.667 328.5,343.333 329.5,343C 326.953,342.933 324.786,342.099 323,340.5C 322.667,340.833 322.333,341.167 322,341.5C 319.266,340.638 319.099,339.805 321.5,339C 318.114,338.618 315.448,337.618 313.5,336C 314.833,335.667 316.167,335.333 317.5,335C 313.808,335.004 310.475,334.004 307.5,332C 308.167,331.667 308.833,331.333 309.5,331C 306.114,330.618 303.448,329.618 301.5,328C 302.833,327.667 304.167,327.333 305.5,327C 301.808,327.004 298.475,326.004 295.5,324C 296.167,323.667 296.833,323.333 297.5,323C 295.833,322.667 294.167,322.333 292.5,322C 293.696,321.346 293.696,320.846 292.5,320.5C 291.817,320.863 291.15,321.196 290.5,321.5C 291.787,318.594 292.787,315.594 293.5,312.5C 292.325,312.281 291.325,312.614 290.5,313.5C 289.725,315.396 288.725,317.063 287.5,318.5C 287.119,317.069 286.119,316.236 284.5,316C 285.5,315.667 286.5,315.333 287.5,315C 284.475,314.867 281.808,313.867 279.5,312C 280.167,311.667 280.833,311.333 281.5,311C 279.047,310.273 276.714,309.273 274.5,308C 275.5,307.667 276.5,307.333 277.5,307C 274.114,306.618 271.448,305.618 269.5,304C 270.833,303.667 272.167,303.333 273.5,303C 271.423,302.808 269.423,302.308 267.5,301.5C 265.009,300.459 265.009,299.626 267.5,299C 265.833,298.667 264.167,298.333 262.5,298C 262.833,297.667 263.167,297.333 263.5,297C 259.5,296.333 259.5,295.667 263.5,295C 261.833,294.667 260.167,294.333 258.5,294C 256.875,293.147 256.542,292.147 257.5,291C 255.226,290.53 253.226,289.53 251.5,288C 252.167,287.667 252.833,287.333 253.5,287C 251.226,286.53 249.226,285.53 247.5,284C 248.167,283.667 248.833,283.333 249.5,283C 247.226,282.53 245.226,281.53 243.5,280C 245.932,278.913 245.598,278.413 242.5,278.5C 242.5,282.5 242.5,286.5 242.5,290.5C 241.339,277.006 241.173,263.34 242,249.5C 242.833,248.667 243.667,247.833 244.5,247C 240.833,246.333 237.167,246.333 233.5,247C 234.701,247.903 235.535,249.069 236,250.5C 236.827,263.673 236.66,276.673 235.5,289.5C 235.83,283.132 235.496,276.798 234.5,270.5C 233.646,269.478 232.646,268.645 231.5,268C 232.167,267.667 232.833,267.333 233.5,267C 231.833,266 230.167,265 228.5,264C 229.5,263.667 230.5,263.333 231.5,263C 229.833,262.667 228.167,262.333 226.5,262C 224.875,261.147 224.542,260.147 225.5,259C 224.5,258.667 223.5,258.333 222.5,258C 223.634,256.984 223.301,256.317 221.5,256C 223.932,254.913 223.598,254.413 220.5,254.5C 220.055,251.635 220.722,249.135 222.5,247C 219.183,246.502 215.85,246.335 212.5,246.5C 212.611,245.883 212.944,245.383 213.5,245C 210.833,244.333 210.833,243.667 213.5,243C 212.062,242.781 210.729,242.281 209.5,241.5C 208.359,240.575 208.359,239.741 209.5,239C 207.285,238.612 205.952,237.612 205.5,236C 206.167,235.667 206.833,235.333 207.5,235C 206.167,234.667 204.833,234.333 203.5,234C 204.167,233.667 204.833,233.333 205.5,233C 201.5,232.333 201.5,231.667 205.5,231C 203.833,230.667 202.167,230.333 200.5,230C 200.833,229.667 201.167,229.333 201.5,229C 198.833,228.333 198.833,227.667 201.5,227C 199.337,226.755 197.67,225.755 196.5,224C 197.5,223.667 198.5,223.333 199.5,223C 197.833,222.667 196.167,222.333 194.5,222C 195.634,220.984 195.301,220.317 193.5,220C 198.508,219.131 198.175,218.464 192.5,218C 192.833,217.667 193.167,217.333 193.5,217C 189.5,216.333 189.5,215.667 193.5,215C 192.062,214.781 190.729,214.281 189.5,213.5C 188.359,212.575 188.359,211.741 189.5,211C 188.5,210.667 187.5,210.333 186.5,210C 190.185,209.086 189.852,208.419 185.5,208C 190.508,207.131 190.175,206.464 184.5,206C 184.833,205.667 185.167,205.333 185.5,205C 182.833,204.333 182.833,203.667 185.5,203C 184.167,202.667 182.833,202.333 181.5,202C 182.167,201.667 182.833,201.333 183.5,201C 182.072,200.421 180.738,200.588 179.5,201.5C 192.989,173.855 206.489,146.189 220,118.5C 223.068,109.795 226.235,101.128 229.5,92.5C 230.167,92.1667 230.833,91.8333 231.5,91.5C 238.304,95.0784 245.304,95.4118 252.5,92.5 Z"/></g>
<g><path style="opacity:1" fill="#555555" d="M 203.5,124.5 C 209.158,123.679 210.825,125.846 208.5,131C 202.244,131.934 200.577,129.767 203.5,124.5 Z"/></g>
<g><path style="opacity:1" fill="#fbfbfb" d="M 218.5,129.5 C 221.225,133.268 223.725,137.268 226,141.5C 234.275,159.716 242.275,178.05 250,196.5C 252.581,207.246 250.248,216.579 243,224.5C 231.839,200.011 220.005,175.844 207.5,152C 211.578,144.678 215.245,137.178 218.5,129.5 Z"/></g>
<g><path style="opacity:1" fill="#f1f1f1" d="M 59.5,247.5 C 61.9479,246.527 64.6146,246.194 67.5,246.5C 67.3334,261.17 67.5001,275.837 68,290.5C 68.4652,291.931 69.2986,293.097 70.5,294C 66.5,294.667 62.5,294.667 58.5,294C 59.8932,292.829 60.7265,291.329 61,289.5C 61.6667,276.167 61.6667,262.833 61,249.5C 60.7216,248.584 60.2216,247.918 59.5,247.5 Z"/></g>
<g><path style="opacity:1" fill="#f4f4f4" d="M 88.5,246.5 C 88.81,249.713 88.4767,252.713 87.5,255.5C 86.0552,249.897 82.3885,247.064 76.5,247C 80.4862,246.501 84.4862,246.334 88.5,246.5 Z"/></g>
<g><path style="opacity:1" fill="#f4f4f4" d="M 131.5,283.5 C 132.042,286.912 133.375,289.912 135.5,292.5C 132.167,293.833 128.833,293.833 125.5,292.5C 126.522,287.361 125.522,282.527 122.5,278C 102.5,277.333 102.5,276.667 122.5,276C 119.261,267.449 115.928,258.949 112.5,250.5C 113.234,249.292 113.567,247.959 113.5,246.5C 114.833,246.5 116.167,246.5 117.5,246.5C 121.399,259.208 126.066,271.541 131.5,283.5 Z"/></g>
<g><path style="opacity:1" fill="#f4f4f4" d="M 190.5,292.5 C 187.5,293.833 184.5,293.833 181.5,292.5C 182.649,277.908 182.815,263.241 182,248.5C 181.5,248 181,247.5 180.5,247C 184.167,246.333 187.833,246.333 191.5,247C 190.333,247.5 189.5,248.333 189,249.5C 188.333,263.167 188.333,276.833 189,290.5C 189.278,291.416 189.778,292.082 190.5,292.5 Z"/></g>
<g><path style="opacity:1" fill="#f5f5f5" d="M 212.5,246.5 C 215.85,246.335 219.183,246.502 222.5,247C 220.722,249.135 220.055,251.635 220.5,254.5C 220.205,267.216 220.538,279.883 221.5,292.5C 218.5,293.833 215.5,293.833 212.5,292.5C 213.222,292.082 213.722,291.416 214,290.5C 214.5,283.508 214.666,276.508 214.5,269.5C 214.5,268.833 214.5,268.167 214.5,267.5C 214.666,261.491 214.499,255.491 214,249.5C 213.5,248.333 212.667,247.5 211.5,247C 211.728,246.601 212.062,246.435 212.5,246.5 Z"/></g>
<g><path style="opacity:1" fill="#fdfdfd" d="M 242.5,290.5 C 242.328,291.492 242.662,292.158 243.5,292.5C 240.5,293.833 237.5,293.833 234.5,292.5C 235.11,291.609 235.443,290.609 235.5,289.5C 236.66,276.673 236.827,263.673 236,250.5C 235.535,249.069 234.701,247.903 233.5,247C 237.167,246.333 240.833,246.333 244.5,247C 243.667,247.833 242.833,248.667 242,249.5C 241.173,263.34 241.339,277.006 242.5,290.5 Z"/></g>
<g><path style="opacity:1" fill="#f5f5f5" d="M 347.5,286.5 C 347.802,289.059 347.468,291.393 346.5,293.5C 336.148,281.305 326.315,268.638 317,255.5C 314.131,252.296 310.965,249.463 307.5,247C 310.882,246.176 314.216,246.343 317.5,247.5C 327.524,260.519 337.524,273.519 347.5,286.5 Z"/></g>
<g><path style="opacity:1" fill="#f0f0f0" d="M 348.5,252.5 C 347.833,253.167 347.167,253.833 346.5,254.5C 346.673,250.83 345.007,248.33 341.5,247C 345.167,246.333 348.833,246.333 352.5,247C 349.785,247.875 348.452,249.708 348.5,252.5 Z"/></g>
<g><path style="opacity:1" fill="#ebebeb" d="M 161.5,247.5 C 164.423,246.729 167.256,247.396 170,249.5C 169.959,252.804 169.626,256.137 169,259.5C 167.956,257.285 167.29,254.952 167,252.5C 165.924,249.921 164.091,248.254 161.5,247.5 Z"/></g>
<g><path style="opacity:1" fill="#f1f1f1" d="M 163.5,292.5 C 163.5,292.167 163.5,291.833 163.5,291.5C 168.09,287.357 168.59,282.69 165,277.5C 159.08,273.301 152.914,269.467 146.5,266C 140.01,256.947 142.01,250.28 152.5,246C 153.5,245.333 154.5,245.333 155.5,246C 147.558,248.427 145.558,253.261 149.5,260.5C 154.832,264.501 160.498,268.001 166.5,271C 172.783,275.87 173.949,281.703 170,288.5C 168.362,290.734 166.195,292.067 163.5,292.5 Z"/></g>
<g><path style="opacity:1" fill="#f0f0f0" d="M 271.5,245.5 C 272.552,245.351 273.552,245.517 274.5,246C 264.025,249.919 259.025,257.586 259.5,269C 259.276,277.472 261.943,284.805 267.5,291C 269.833,292 272.167,293 274.5,294C 260.686,291.96 253.686,283.793 253.5,269.5C 253.887,257.133 259.887,249.133 271.5,245.5 Z"/></g>
<g><path style="opacity:1" fill="#efefef" d="M 279.5,246.5 C 293.033,247.889 300.033,255.723 300.5,270C 299.58,282.702 293.08,290.868 281,294.5C 293.184,286.885 297.184,275.218 293,259.5C 291.249,252.248 286.749,247.915 279.5,246.5 Z"/></g>
<g><path style="opacity:1" fill="#939393" d="M 88.5,246.5 C 89.647,250.646 89.8136,254.98 89,259.5C 88.5899,258.099 88.0899,256.766 87.5,255.5C 88.4767,252.713 88.81,249.713 88.5,246.5 Z"/></g>
<g><path style="opacity:1" fill="#3c3c3c" d="M -0.5,254.5 C 0.238911,254.369 0.905578,254.536 1.5,255C 0.359452,255.741 0.359452,256.575 1.5,257.5C 2.72865,258.281 4.06199,258.781 5.5,259C 4.5,259.333 3.5,259.667 2.5,260C 3.67003,261.755 5.3367,262.755 7.5,263C 6.5,263.333 5.5,263.667 4.5,264C 5.67003,265.755 7.3367,266.755 9.5,267C 8.5,267.333 7.5,267.667 6.5,268C 7.67003,269.755 9.3367,270.755 11.5,271C 10.5,271.333 9.5,271.667 8.5,272C 9.67003,273.755 11.3367,274.755 13.5,275C 12.5,275.333 11.5,275.667 10.5,276C 13.5443,276.359 13.8776,277.026 11.5,278C 15.8518,278.419 16.1851,279.086 12.5,280C 15.5443,280.359 15.8776,281.026 13.5,282C 14.8333,282.333 16.1667,282.667 17.5,283C 16.8333,283.333 16.1667,283.667 15.5,284C 17.3008,284.317 17.6341,284.984 16.5,286C 22.1748,286.464 22.5081,287.131 17.5,288C 17.952,289.612 19.2853,290.612 21.5,291C 20.8333,291.333 20.1667,291.667 19.5,292C 21.3008,292.317 21.6341,292.984 20.5,294C 22.1667,294.333 23.8333,294.667 25.5,295C 21.5,295.667 21.5,296.333 25.5,297C 22.8333,297.667 22.8333,298.333 25.5,299C 24.3595,299.741 24.3595,300.575 25.5,301.5C 26.7287,302.281 28.062,302.781 29.5,303C 28.8333,303.333 28.1667,303.667 27.5,304C 27.952,305.612 29.2853,306.612 31.5,307C 30.8333,307.333 30.1667,307.667 29.5,308C 31.3008,308.317 31.6341,308.984 30.5,310C 31.5,310.333 32.5,310.667 33.5,311C 32.3595,311.741 32.3595,312.575 33.5,313.5C 34.7287,314.281 36.062,314.781 37.5,315C 33.5,315.667 33.5,316.333 37.5,317C 37.1667,317.333 36.8333,317.667 36.5,318C 42.1748,318.464 42.5081,319.131 37.5,320C 37.952,321.612 39.2853,322.612 41.5,323C 40.3595,323.741 40.3595,324.575 41.5,325.5C 42.7287,326.281 44.062,326.781 45.5,327C 44.5,327.333 43.5,327.667 42.5,328C 44.1667,329 45.8333,330 47.5,331C 46.8333,331.333 46.1667,331.667 45.5,332C 47.2262,333.53 49.2262,334.53 51.5,335C 50.5,335.333 49.5,335.667 48.5,336C 49.67,337.755 51.3367,338.755 53.5,339C 52.8333,339.333 52.1667,339.667 51.5,340C 53.3008,340.317 53.6341,340.984 52.5,342C 54.1667,342.333 55.8333,342.667 57.5,343C 56.5,343.333 55.5,343.667 54.5,344C 57.5443,344.359 57.8776,345.026 55.5,346C 56.8333,346.333 58.1667,346.667 59.5,347C 58.8333,347.333 58.1667,347.667 57.5,348C 59.3008,348.317 59.6341,348.984 58.5,350C 60.1667,350.333 61.8333,350.667 63.5,351C 62.5,351.333 61.5,351.667 60.5,352C 61.67,353.755 63.3367,354.755 65.5,355C 64.8333,355.333 64.1667,355.667 63.5,356C 65.2262,357.53 67.2262,358.53 69.5,359C 65.5,359.667 65.5,360.333 69.5,361C 69.1667,361.333 68.8333,361.667 68.5,362C 74.1748,362.464 74.5081,363.131 69.5,364C 71.6589,366.495 74.3255,368.161 77.5,369C 73.5,369.667 73.5,370.333 77.5,371C 77.1667,371.333 76.8333,371.667 76.5,372C 78.1667,372.333 79.8333,372.667 81.5,373C 80.5,373.333 79.5,373.667 78.5,374C 81.5443,374.359 81.8776,375.026 79.5,376C 81.5,376.333 83.5,376.667 85.5,377C 84.1667,377.333 82.8333,377.667 81.5,378C 83.2262,379.53 85.2262,380.53 87.5,381C 86.8333,381.333 86.1667,381.667 85.5,382C 85.952,383.612 87.2853,384.612 89.5,385C 89.1667,385.333 88.8333,385.667 88.5,386C 90.3591,387.981 92.6924,388.981 95.5,389C 94.5,389.333 93.5,389.667 92.5,390C 94.1667,391 95.8333,392 97.5,393C 96.8333,393.333 96.1667,393.667 95.5,394C 97.2262,395.53 99.2262,396.53 101.5,397C 100.833,397.333 100.167,397.667 99.5,398C 101.226,399.53 103.226,400.53 105.5,401C 104.833,401.333 104.167,401.667 103.5,402C 105.226,403.53 107.226,404.53 109.5,405C 108.833,405.333 108.167,405.667 107.5,406C 109.226,407.53 111.226,408.53 113.5,409C 112.584,409.278 111.918,409.778 111.5,410.5C 74.1667,410.5 36.8333,410.5 -0.5,410.5C -0.5,358.5 -0.5,306.5 -0.5,254.5 Z"/></g>
<g><path style="opacity:1" fill="#939393" d="M 348.5,252.5 C 348.666,261.839 348.5,271.173 348,280.5C 346.855,271.87 346.355,263.203 346.5,254.5C 347.167,253.833 347.833,253.167 348.5,252.5 Z"/></g>
<g><path style="opacity:1" fill="#e8e8e8" d="M 83.5,264.5 C 84.6433,267.976 84.8099,271.642 84,275.5C 81.76,271.43 78.26,269.264 73.5,269C 75.8333,268.667 78.1667,268.333 80.5,268C 82.4257,267.578 83.4257,266.411 83.5,264.5 Z"/></g>
<g><path style="opacity:1" fill="#a4a4a4" d="M 103.5,274.5 C 103.826,271.689 104.659,269.022 106,266.5C 106.264,269.539 105.431,272.206 103.5,274.5 Z"/></g>
<g><path style="opacity:1" fill="#8a8a8a" d="M 214.5,267.5 C 214.5,268.167 214.5,268.833 214.5,269.5C 186.558,269.49 186.558,268.823 214.5,267.5 Z"/></g>
<g><path style="opacity:1" fill="#bababa" d="M 103.5,274.5 C 103.598,276.553 102.931,278.22 101.5,279.5C 101.402,277.447 102.069,275.78 103.5,274.5 Z"/></g>
<g><path style="opacity:1" fill="#e2e2e2" d="M 141.5,290.5 C 141.564,286.78 142.064,283.114 143,279.5C 143.481,286.665 146.981,291.498 153.5,294C 149.173,294.083 145.173,292.917 141.5,290.5 Z"/></g>
<g><path style="opacity:1" fill="#e1e1e1" d="M 316.5,292.5 C 313.833,293.833 311.167,293.833 308.5,292.5C 310.61,291.547 311.777,289.881 312,287.5C 312.667,247.5 313.333,247.5 314,287.5C 314.099,289.653 314.933,291.319 316.5,292.5 Z"/></g>
<g><path style="opacity:1" fill="#9c9c9c" d="M 347.5,286.5 C 348.8,289.024 348.8,291.691 347.5,294.5C 346.893,294.376 346.56,294.043 346.5,293.5C 347.468,291.393 347.802,289.059 347.5,286.5 Z"/></g>
<g><path style="opacity:1" fill="#e5e5e5" d="M 101.5,279.5 C 100.839,282.488 100.172,285.488 99.5,288.5C 99.3402,290.355 100.007,291.688 101.5,292.5C 98.8333,293.833 96.1667,293.833 93.5,292.5C 94.4584,292.047 95.2917,291.381 96,290.5C 97.8793,286.741 99.7126,283.075 101.5,279.5 Z"/></g>
<g><path style="opacity:1" fill="#9b9b9b" d="M 93.5,292.5 C 96.1667,293.833 98.8333,293.833 101.5,292.5C 102.289,292.783 102.956,293.283 103.5,294C 99.7887,294.825 96.122,294.659 92.5,293.5C 92.6236,292.893 92.9569,292.56 93.5,292.5 Z"/></g>
<g><path style="opacity:1" fill="#a0a0a0" d="M 125.5,292.5 C 128.833,293.833 132.167,293.833 135.5,292.5C 136.289,292.783 136.956,293.283 137.5,294C 132.833,294.667 128.167,294.667 123.5,294C 124.044,293.283 124.711,292.783 125.5,292.5 Z"/></g>
<g><path style="opacity:1" fill="#929292" d="M 163.5,291.5 C 163.5,291.833 163.5,292.167 163.5,292.5C 161.775,293.905 159.775,294.405 157.5,294C 159.488,293.062 161.488,292.228 163.5,291.5 Z"/></g>
<g><path style="opacity:1" fill="#9f9f9f" d="M 181.5,292.5 C 184.5,293.833 187.5,293.833 190.5,292.5C 191.043,292.56 191.376,292.893 191.5,293.5C 187.541,294.66 183.541,294.827 179.5,294C 180.044,293.283 180.711,292.783 181.5,292.5 Z"/></g>
<g><path style="opacity:1" fill="#a3a3a3" d="M 212.5,292.5 C 215.5,293.833 218.5,293.833 221.5,292.5C 222.289,292.783 222.956,293.283 223.5,294C 219.459,294.827 215.459,294.66 211.5,293.5C 211.624,292.893 211.957,292.56 212.5,292.5 Z"/></g>
<g><path style="opacity:1" fill="#a2a2a2" d="M 234.5,292.5 C 237.5,293.833 240.5,293.833 243.5,292.5C 244.043,292.56 244.376,292.893 244.5,293.5C 240.833,294.833 237.167,294.833 233.5,293.5C 233.624,292.893 233.957,292.56 234.5,292.5 Z"/></g>
<g><path style="opacity:1" fill="#a1a1a1" d="M 308.5,292.5 C 311.167,293.833 313.833,293.833 316.5,292.5C 317.289,292.783 317.956,293.283 318.5,294C 314.5,294.667 310.5,294.667 306.5,294C 307.044,293.283 307.711,292.783 308.5,292.5 Z"/></g>
<g><path style="opacity:1" fill="#8f8f8f" d="M 262.5,314.5 C 259.572,313.18 256.239,312.514 252.5,312.5C 249.167,312.833 245.833,313.167 242.5,313.5C 245.306,314.168 247.972,314.834 250.5,315.5C 247.5,315.5 244.5,315.5 241.5,315.5C 241.5,314.167 241.5,312.833 241.5,311.5C 248.833,311.5 256.167,311.5 263.5,311.5C 263.737,312.791 263.404,313.791 262.5,314.5 Z"/></g>
<g><path style="opacity:1" fill="#ededed" d="M 117.5,312.5 C 121.846,312.334 126.179,312.501 130.5,313C 136.469,315.103 138.636,319.27 137,325.5C 136.028,327.305 134.861,328.972 133.5,330.5C 134.815,332.316 136.315,333.983 138,335.5C 140.812,341.902 139.645,347.402 134.5,352C 128.956,353.404 123.29,353.904 117.5,353.5C 117.5,339.833 117.5,326.167 117.5,312.5 Z"/></g>
<g><path style="opacity:1" fill="#f1f1f1" d="M 148.5,312.5 C 155.5,312.5 162.5,312.5 169.5,312.5C 169.5,313.5 169.5,314.5 169.5,315.5C 163.5,315.5 157.5,315.5 151.5,315.5C 151.5,320.833 151.5,326.167 151.5,331.5C 157.167,331.5 162.833,331.5 168.5,331.5C 168.5,332.5 168.5,333.5 168.5,334.5C 162.833,334.5 157.167,334.5 151.5,334.5C 151.5,339.833 151.5,345.167 151.5,350.5C 157.5,350.5 163.5,350.5 169.5,350.5C 169.5,351.5 169.5,352.5 169.5,353.5C 162.5,353.5 155.5,353.5 148.5,353.5C 148.5,339.833 148.5,326.167 148.5,312.5 Z"/></g>
<g><path style="opacity:1" fill="#dadada" d="M 210.5,312.5 C 211.833,312.5 213.167,312.5 214.5,312.5C 214.333,324.171 214.5,335.838 215,347.5C 219.62,352.823 224.286,352.823 229,347.5C 229.5,335.838 229.667,324.171 229.5,312.5C 230.5,312.5 231.5,312.5 232.5,312.5C 232.667,324.505 232.5,336.505 232,348.5C 228.723,354.109 223.89,355.942 217.5,354C 215.376,352.878 213.543,351.378 212,349.5C 210.582,337.228 210.082,324.895 210.5,312.5 Z"/></g>
<g><path style="opacity:1" fill="#e6e6e6" d="M 262.5,314.5 C 260.052,315.473 257.385,315.806 254.5,315.5C 254.5,328.167 254.5,340.833 254.5,353.5C 253.167,353.5 251.833,353.5 250.5,353.5C 250.5,340.833 250.5,328.167 250.5,315.5C 247.972,314.834 245.306,314.168 242.5,313.5C 245.833,313.167 249.167,312.833 252.5,312.5C 256.239,312.514 259.572,313.18 262.5,314.5 Z"/></g>
<g><path style="opacity:1" fill="#454545" d="M 128.5,315.5 C 133.655,316.797 135.488,320.13 134,325.5C 133.5,327.333 132.333,328.5 130.5,329C 127.518,329.498 124.518,329.665 121.5,329.5C 121.5,324.833 121.5,320.167 121.5,315.5C 123.833,315.5 126.167,315.5 128.5,315.5 Z"/></g>
<g><path style="opacity:1" fill="#767676" d="M 128.5,315.5 C 126.167,315.5 123.833,315.5 121.5,315.5C 121.5,320.167 121.5,324.833 121.5,329.5C 120.513,324.695 120.179,319.695 120.5,314.5C 123.385,314.194 126.052,314.527 128.5,315.5 Z"/></g>
<g><path style="opacity:1" fill="#f0f0f0" d="M 287.5,318.5 C 288.725,317.063 289.725,315.396 290.5,313.5C 291.325,312.614 292.325,312.281 293.5,312.5C 292.787,315.594 291.787,318.594 290.5,321.5C 284.871,331.359 282.871,342.026 284.5,353.5C 283.5,353.5 282.5,353.5 281.5,353.5C 281.666,346.825 281.5,340.158 281,333.5C 277.962,326.591 274.795,319.758 271.5,313C 272.944,312.219 274.277,312.386 275.5,313.5C 277.911,319.243 280.411,324.909 283,330.5C 284.798,326.578 286.298,322.578 287.5,318.5 Z"/></g>
<g><path style="opacity:1" fill="#434343" d="M 130.5,333.5 C 136.207,335.958 138.041,340.291 136,346.5C 134.786,348.049 133.286,349.215 131.5,350C 128.183,350.498 124.85,350.665 121.5,350.5C 121.5,344.833 121.5,339.167 121.5,333.5C 124.5,333.5 127.5,333.5 130.5,333.5 Z"/></g>
<g><path style="opacity:1" fill="#7c7c7c" d="M 130.5,333.5 C 127.5,333.5 124.5,333.5 121.5,333.5C 121.5,339.167 121.5,344.833 121.5,350.5C 120.51,344.69 120.177,338.69 120.5,332.5C 124.042,332.187 127.375,332.521 130.5,333.5 Z"/></g>
<g><path style="opacity:1" fill="#e4e4e4" d="M 183.5,342.5 C 182.417,346.085 181.751,349.751 181.5,353.5C 180.5,353.5 179.5,353.5 178.5,353.5C 179.031,348.382 180.031,343.382 181.5,338.5C 184.432,330.116 186.765,321.449 188.5,312.5C 189.833,312.5 191.167,312.5 192.5,312.5C 195.848,325.89 199.515,339.224 203.5,352.5C 202.5,353.833 201.5,353.833 200.5,352.5C 199.5,349.167 198.5,345.833 197.5,342.5C 192.682,341.188 188.015,341.188 183.5,342.5 Z"/></g>
<g><path style="opacity:1" fill="#4e4e4e" d="M 189.5,316.5 C 190.586,316.62 191.253,317.287 191.5,318.5C 193.17,325.181 194.837,331.847 196.5,338.5C 192.445,338.824 188.445,338.491 184.5,337.5C 186.641,330.604 188.307,323.604 189.5,316.5 Z"/></g>
</svg>
